<svg width="147" height="157" viewBox="0 0 147 157" fill="none" xmlns="http://www.w3.org/2000/svg">
<rect x="30" width="86" height="86" rx="30" fill="url(#paint0_linear_986_29633)"/>
<g clip-path="url(#clip0_986_29633)">
<path d="M76.7511 65.7023C76.7511 65.5654 76.7511 41.8823 76.7511 41.8823C76.7511 41.8823 90.686 28.4769 90.7974 28.3848C90.9528 28.5743 93.444 32.2732 94.2209 34.1476C95.0375 36.1222 95.5846 38.2011 95.8472 40.3264C96.0211 41.7753 96.0567 43.238 95.9534 44.6939C95.6394 49.4932 93.7958 54.0578 90.7016 57.6965C89.8355 58.7359 88.8824 59.6969 87.8529 60.5687C86.3431 61.8399 84.6854 62.9177 82.9171 63.7779C81.0732 64.6677 76.9609 65.7102 76.865 65.7234C76.8264 65.7209 76.7881 65.7139 76.7511 65.7023Z" fill="#0A0A0A"/>
<path d="M87.7313 25.2751L83.0699 29.6611C82.6348 29.3978 82.2308 29.1346 81.8191 28.8713C80.1091 27.8312 78.2222 27.1267 76.2565 26.7941C71.9833 26.0537 67.5931 26.9939 63.9769 29.4239C60.3607 31.8539 57.7894 35.5915 56.7849 39.8783C56.4015 41.5393 56.2748 43.2508 56.4094 44.9514C56.5874 47.4117 57.2946 49.8023 58.4811 51.9542C58.4811 51.97 55.5652 54.8501 54.0503 56.2902C53.8146 55.9453 53.5945 55.6399 53.3925 55.324C52.0136 53.1706 51.0349 50.7783 50.505 48.2659C50.1412 46.5473 49.9675 44.7927 49.9871 43.0349C50.0132 40.6149 50.4215 38.215 51.1965 35.9268C52.2262 32.8476 53.8758 30.0203 56.0401 27.6252C58.2043 25.2301 60.8358 23.3197 63.7666 22.0159C65.4014 21.283 67.1143 20.745 68.8708 20.4126C70.4548 20.1865 72.0499 20.0494 73.6487 20.002C74.7371 20.0303 75.8226 20.1288 76.8988 20.2968C78.9373 20.6205 80.9213 21.2329 82.7928 22.116C84.355 22.8621 85.8314 23.7812 87.1952 24.8565L87.7313 25.2751Z" fill="#0A0A0A"/>
<path d="M73.6538 65.9989L69.9946 65.9278V48.0259C69.9946 48.0259 73.6486 44.5113 73.6564 44.5166C73.6642 44.5219 73.6538 65.9989 73.6538 65.9989Z" fill="#0A0A0A"/>
<path d="M66.8095 50.9395V65.2794L63.1244 63.8867L63.171 54.4277L66.8095 50.9395Z" fill="#0A0A0A"/>
<path d="M59.763 61.999L57.1423 59.9192L59.8355 57.3682L59.763 61.999Z" fill="#0A0A0A"/>
</g>
<path d="M19.3327 119.132V123.79H13.0087V143H7.19469V123.79H0.870688V119.132H19.3327ZM28.0646 127.19C28.7446 126.147 29.5946 125.331 30.6146 124.742C31.6346 124.13 32.7679 123.824 34.0146 123.824V129.978H32.4166C30.9659 129.978 29.8779 130.295 29.1526 130.93C28.4272 131.542 28.0646 132.63 28.0646 134.194V143H22.2506V124.028H28.0646V127.19ZM35.6375 133.48C35.6375 131.531 36.0002 129.819 36.7255 128.346C37.4735 126.873 38.4822 125.739 39.7515 124.946C41.0209 124.153 42.4375 123.756 44.0015 123.756C45.3389 123.756 46.5062 124.028 47.5035 124.572C48.5235 125.116 49.3055 125.83 49.8495 126.714V124.028H55.6635V143H49.8495V140.314C49.2829 141.198 48.4895 141.912 47.4695 142.456C46.4722 143 45.3049 143.272 43.9675 143.272C42.4262 143.272 41.0209 142.875 39.7515 142.082C38.4822 141.266 37.4735 140.121 36.7255 138.648C36.0002 137.152 35.6375 135.429 35.6375 133.48ZM49.8495 133.514C49.8495 132.063 49.4415 130.919 48.6255 130.08C47.8322 129.241 46.8575 128.822 45.7015 128.822C44.5455 128.822 43.5595 129.241 42.7435 130.08C41.9502 130.896 41.5535 132.029 41.5535 133.48C41.5535 134.931 41.9502 136.087 42.7435 136.948C43.5595 137.787 44.5455 138.206 45.7015 138.206C46.8575 138.206 47.8322 137.787 48.6255 136.948C49.4415 136.109 49.8495 134.965 49.8495 133.514ZM58.7137 133.48C58.7137 131.531 59.0764 129.819 59.8017 128.346C60.5497 126.873 61.5584 125.739 62.8277 124.946C64.0971 124.153 65.5137 123.756 67.0777 123.756C68.3244 123.756 69.4577 124.017 70.4777 124.538C71.5204 125.059 72.3364 125.762 72.9257 126.646V117.84H78.7397V143H72.9257V140.28C72.3817 141.187 71.5997 141.912 70.5797 142.456C69.5824 143 68.4151 143.272 67.0777 143.272C65.5137 143.272 64.0971 142.875 62.8277 142.082C61.5584 141.266 60.5497 140.121 59.8017 138.648C59.0764 137.152 58.7137 135.429 58.7137 133.48ZM72.9257 133.514C72.9257 132.063 72.5177 130.919 71.7017 130.08C70.9084 129.241 69.9337 128.822 68.7777 128.822C67.6217 128.822 66.6357 129.241 65.8197 130.08C65.0264 130.896 64.6297 132.029 64.6297 133.48C64.6297 134.931 65.0264 136.087 65.8197 136.948C66.6357 137.787 67.6217 138.206 68.7777 138.206C69.9337 138.206 70.9084 137.787 71.7017 136.948C72.5177 136.109 72.9257 134.965 72.9257 133.514ZM100.83 133.208C100.83 133.752 100.796 134.319 100.728 134.908H87.5699C87.6606 136.087 88.0346 136.993 88.6919 137.628C89.3719 138.24 90.1992 138.546 91.1739 138.546C92.6246 138.546 93.6332 137.934 94.1999 136.71H100.388C100.071 137.957 99.4926 139.079 98.6539 140.076C97.8379 141.073 96.8066 141.855 95.5599 142.422C94.3132 142.989 92.9192 143.272 91.3779 143.272C89.5192 143.272 87.8646 142.875 86.4139 142.082C84.9632 141.289 83.8299 140.155 83.0139 138.682C82.1979 137.209 81.7899 135.486 81.7899 133.514C81.7899 131.542 82.1866 129.819 82.9799 128.346C83.7959 126.873 84.9292 125.739 86.3799 124.946C87.8306 124.153 89.4966 123.756 91.3779 123.756C93.2139 123.756 94.8459 124.141 96.2739 124.912C97.7019 125.683 98.8126 126.782 99.6059 128.21C100.422 129.638 100.83 131.304 100.83 133.208ZM94.8799 131.678C94.8799 130.681 94.5399 129.887 93.8599 129.298C93.1799 128.709 92.3299 128.414 91.3099 128.414C90.3352 128.414 89.5079 128.697 88.8279 129.264C88.1706 129.831 87.7626 130.635 87.6039 131.678H94.8799ZM118.755 138.784H109.847L108.419 143H102.333L110.969 119.132H117.701L126.337 143H120.183L118.755 138.784ZM117.259 134.296L114.301 125.558L111.377 134.296H117.259ZM146.135 119.132V123.79H139.811V143H133.997V123.79H127.673V119.132H146.135Z" fill="white"/>
<defs>
<linearGradient id="paint0_linear_986_29633" x1="73" y1="0" x2="73" y2="86" gradientUnits="userSpaceOnUse">
<stop stop-color="#FFD950"/>
<stop offset="1" stop-color="#E78932"/>
</linearGradient>
<clipPath id="clip0_986_29633">
<rect width="46" height="46" fill="white" transform="translate(50 20)"/>
</clipPath>
</defs>
</svg>
