<svg width="22" height="22" viewBox="0 0 22 22" fill="none" xmlns="http://www.w3.org/2000/svg">
<path fill-rule="evenodd" clip-rule="evenodd" d="M8.55862 13.7217L8.36815 13.7531C6.60153 14.0444 5.27344 15.6277 5.27344 17.5195C5.27344 18.1171 5.7368 18.5632 6.26172 18.5632H15.7435C16.2684 18.5632 16.7318 18.1171 16.7318 17.5195C16.7318 15.6277 15.4037 14.0444 13.6371 13.7531L13.4466 13.7217C11.8275 13.4548 10.1777 13.4548 8.55862 13.7217ZM13.6703 12.365L13.8608 12.3964C16.3231 12.8024 18.1068 14.9873 18.1068 17.5195C18.1068 18.834 17.0696 19.9382 15.7435 19.9382H6.26172C4.93562 19.9382 3.89844 18.834 3.89844 17.5195C3.89844 14.9873 5.68211 12.8024 8.14446 12.3964L8.33493 12.365C10.1022 12.0736 11.903 12.0736 13.6703 12.365Z" fill="#979797"/>
<path fill-rule="evenodd" clip-rule="evenodd" d="M11.0047 3.4375C9.29342 3.4375 7.94922 4.76902 7.94922 6.35938C7.94922 7.94973 9.29342 9.28125 11.0047 9.28125C12.7161 9.28125 14.0604 7.94973 14.0604 6.35938C14.0604 4.76902 12.7161 3.4375 11.0047 3.4375ZM6.57422 6.35938C6.57422 3.96292 8.58163 2.0625 11.0047 2.0625C13.428 2.0625 15.4354 3.96292 15.4354 6.35938C15.4354 8.75583 13.428 10.6562 11.0047 10.6562C8.58163 10.6562 6.57422 8.75583 6.57422 6.35938Z" fill="#979797"/>
</svg>
