<svg width="22" height="22" viewBox="0 0 22 22" fill="none" xmlns="http://www.w3.org/2000/svg">
<path fill-rule="evenodd" clip-rule="evenodd" d="M8.55862 13.7207L8.36815 13.7522C6.60153 14.0434 5.27344 15.6268 5.27344 17.5186C5.27344 18.1161 5.7368 18.5622 6.26172 18.5622H15.7435C16.2684 18.5622 16.7318 18.1161 16.7318 17.5186C16.7318 15.6268 15.4037 14.0434 13.6371 13.7522L13.4466 13.7207C11.8275 13.4538 10.1777 13.4538 8.55862 13.7207ZM13.6703 12.3641L13.8608 12.3954C16.3231 12.8014 18.1068 14.9863 18.1068 17.5186C18.1068 18.8331 17.0696 19.9372 15.7435 19.9372H6.26172C4.93562 19.9372 3.89844 18.8331 3.89844 17.5186C3.89844 14.9863 5.68211 12.8014 8.14446 12.3954L8.33493 12.3641C10.1022 12.0727 11.903 12.0727 13.6703 12.3641Z" fill="url(#paint0_linear_986_41980)"/>
<path d="M7.0988 13.1281C4.25289 17.4154 5.02366 18.812 5.76478 18.9744L15.9917 19.4616L17.7704 17.5129L15.9917 14.1025C14.9245 12.1538 9.61844 12.6409 7.0988 13.1281Z" fill="url(#paint1_linear_986_41980)"/>
<path fill-rule="evenodd" clip-rule="evenodd" d="M11.0047 3.4375C9.29342 3.4375 7.94922 4.76902 7.94922 6.35938C7.94922 7.94973 9.29342 9.28125 11.0047 9.28125C12.7161 9.28125 14.0604 7.94973 14.0604 6.35938C14.0604 4.76902 12.7161 3.4375 11.0047 3.4375ZM6.57422 6.35938C6.57422 3.96292 8.58163 2.0625 11.0047 2.0625C13.428 2.0625 15.4354 3.96292 15.4354 6.35938C15.4354 8.75583 13.428 10.6562 11.0047 10.6562C8.58163 10.6562 6.57422 8.75583 6.57422 6.35938Z" fill="url(#paint2_linear_986_41980)"/>
<circle cx="10.5772" cy="6.34578" r="3.80769" fill="url(#paint3_linear_986_41980)"/>
<defs>
<linearGradient id="paint0_linear_986_41980" x1="11.0026" y1="12.1455" x2="11.0026" y2="19.9372" gradientUnits="userSpaceOnUse">
<stop stop-color="#FFD950"/>
<stop offset="1" stop-color="#E78932"/>
</linearGradient>
<linearGradient id="paint1_linear_986_41980" x1="11.4243" y1="12.6924" x2="11.4243" y2="19.4616" gradientUnits="userSpaceOnUse">
<stop stop-color="#FFD950"/>
<stop offset="1" stop-color="#E78932"/>
</linearGradient>
<linearGradient id="paint2_linear_986_41980" x1="11.0048" y1="2.0625" x2="11.0048" y2="10.6562" gradientUnits="userSpaceOnUse">
<stop stop-color="#FFD950"/>
<stop offset="1" stop-color="#E78932"/>
</linearGradient>
<linearGradient id="paint3_linear_986_41980" x1="10.5772" y1="2.53809" x2="10.5772" y2="10.1535" gradientUnits="userSpaceOnUse">
<stop stop-color="#FFD950"/>
<stop offset="1" stop-color="#E78932"/>
</linearGradient>
</defs>
</svg>
