<svg width="40" height="40" viewBox="0 0 40 40" fill="none" xmlns="http://www.w3.org/2000/svg">
<rect x="0.5" y="0.5" width="39" height="39" rx="14.5" stroke="#46464F"/>
<g clip-path="url(#clip0_986_32018)">
<path d="M10.1048 29.7482C10.2141 29.9055 10.3938 30 10.586 30H29.414C29.6062 30 29.7859 29.9055 29.8952 29.7482C30.005 29.5903 30.0302 29.3889 29.9627 29.2086C29.7344 28.5981 29.3075 28.0625 29.1341 27.8611C29.0231 27.7312 28.8606 27.6562 28.6895 27.6562H11.3104C11.1393 27.6562 10.9768 27.7312 10.8658 27.8611C10.6925 28.0625 10.2656 28.5981 10.0373 29.2086C9.96977 29.3889 9.99493 29.5903 10.1048 29.7482Z" fill="#979797"/>
<path d="M12.3438 19.4141H15.8984V26.4844H12.3438V19.4141Z" fill="#979797"/>
<path d="M18.2422 19.4141H21.7578V26.4844H18.2422V19.4141Z" fill="#979797"/>
<path d="M24.1016 19.4141H27.6562V26.4844H24.1016V19.4141Z" fill="#979797"/>
<path d="M11.2682 18.0696C11.3782 18.1801 11.5313 18.2422 11.6827 18.2422C11.6828 18.2422 11.6829 18.2421 11.683 18.2421C11.6831 18.2421 11.6832 18.2422 11.6833 18.2418H28.3167C28.3168 18.2422 28.3169 18.2421 28.317 18.2421C28.317 18.2421 28.3172 18.2422 28.3172 18.2422C28.4686 18.2422 28.6217 18.1801 28.7317 18.0696C28.8509 17.9504 29.742 17.0225 29.9999 15.8984H10C10.258 17.0225 11.149 17.9504 11.2682 18.0696Z" fill="#979797"/>
<path d="M29.6272 14.7266L20.2622 10.0618C20.0974 9.9794 19.9029 9.9794 19.738 10.0618L10.373 14.7266H29.6272Z" fill="#979797"/>
</g>
<defs>
<clipPath id="clip0_986_32018">
<rect width="20" height="20" fill="white" transform="translate(10 10)"/>
</clipPath>
</defs>
</svg>
