<svg width="40" height="40" viewBox="0 0 40 40" fill="none" xmlns="http://www.w3.org/2000/svg">
<rect x="0.5" y="0.5" width="39" height="39" rx="15.5" stroke="#46464F"/>
<path d="M21.6497 20L26.6582 14.9915C27.1139 14.5358 27.1139 13.7975 26.6582 13.3418C26.2025 12.8861 25.4642 12.8861 25.0085 13.3418L20 18.3503L14.9915 13.3418C14.5358 12.8861 13.7975 12.8861 13.3418 13.3418C12.8861 13.7975 12.8861 14.5358 13.3418 14.9915L18.3503 20L13.3418 25.0085C12.8861 25.4642 12.8861 26.2025 13.3418 26.6582C13.5697 26.8861 13.8682 27 14.1667 27C14.4652 27 14.7637 26.8861 14.9915 26.6582L20 21.6497L25.0085 26.6582C25.2363 26.8861 25.5348 27 25.8333 27C26.1318 27 26.4303 26.8861 26.6582 26.6582C27.1139 26.2025 27.1139 25.4642 26.6582 25.0085L21.6497 20Z" fill="white"/>
</svg>
