<svg width="22" height="22" viewBox="0 0 22 22" fill="none" xmlns="http://www.w3.org/2000/svg">
<path d="M17.4193 20.8542H4.58594C3.67455 20.8532 2.80078 20.4907 2.15633 19.8463C1.51188 19.2018 1.14941 18.3281 1.14844 17.4167V8.25C1.14941 7.33862 1.51188 6.46484 2.15633 5.82039C2.80078 5.17595 3.67455 4.81347 4.58594 4.8125H17.4193C18.3306 4.81371 19.2042 5.17627 19.8486 5.82066C20.493 6.46505 20.8556 7.33869 20.8568 8.25V17.4167C20.8556 18.328 20.493 19.2016 19.8486 19.846C19.2042 20.4904 18.3306 20.853 17.4193 20.8542ZM4.58594 6.1875C4.03908 6.18799 3.51475 6.40544 3.12807 6.79213C2.74138 7.17882 2.52392 7.70314 2.52344 8.25V17.4167C2.52392 17.9635 2.74138 18.4879 3.12807 18.8745C3.51475 19.2612 4.03908 19.4787 4.58594 19.4792H17.4193C17.9661 19.4784 18.4902 19.2609 18.8769 18.8743C19.2635 18.4876 19.481 17.9635 19.4818 17.4167V8.25C19.481 7.70322 19.2635 7.17903 18.8769 6.7924C18.4902 6.40576 17.9661 6.18823 17.4193 6.1875H4.58594Z" fill="#AAAAAA"/>
<path d="M10.0216 16.1538C9.58606 16.1533 9.16852 15.9801 8.86057 15.6721C8.55261 15.3641 8.37939 14.9466 8.37891 14.5111V11.1561C8.37912 10.8763 8.45086 10.6011 8.58731 10.3568C8.72376 10.1125 8.92039 9.90715 9.15854 9.7602C9.39668 9.61326 9.66843 9.52962 9.94798 9.51723C10.2275 9.50485 10.5056 9.56412 10.7558 9.68943L13.6305 11.1268C13.8877 11.2554 14.1067 11.4493 14.2655 11.6891C14.4243 11.9289 14.5174 12.2062 14.5354 12.4932C14.5534 12.7803 14.4957 13.067 14.3681 13.3248C14.2405 13.5825 14.0475 13.8023 13.8083 13.962L10.9318 15.8769C10.6626 16.0575 10.3457 16.1538 10.0216 16.1538ZM10.0216 10.8875C9.97196 10.8884 9.92349 10.9026 9.88132 10.9288C9.84222 10.9523 9.80996 10.9857 9.78776 11.0256C9.76557 11.0654 9.75421 11.1105 9.75482 11.1561V14.5111C9.75509 14.5593 9.76838 14.6066 9.79329 14.6479C9.81821 14.6892 9.85382 14.723 9.89636 14.7457C9.93891 14.7684 9.9868 14.7793 10.035 14.777C10.0832 14.7748 10.1298 14.7595 10.1701 14.7329L13.0457 12.8162C13.0853 12.791 13.1172 12.7555 13.1381 12.7135C13.1589 12.6715 13.1679 12.6246 13.1639 12.5778C13.1619 12.5307 13.1471 12.485 13.1211 12.4456C13.0951 12.4062 13.0589 12.3746 13.0163 12.3542L10.1407 10.9178C10.1037 10.8982 10.0625 10.8878 10.0207 10.8875H10.0216Z" fill="#AAAAAA"/>
<path d="M11.0011 6.1876C10.9108 6.18783 10.8213 6.17011 10.7379 6.13549C10.6545 6.10088 10.5788 6.05004 10.5152 5.98594L6.84858 2.31927C6.72714 2.18894 6.66103 2.01657 6.66417 1.83846C6.66731 1.66035 6.73946 1.49041 6.86543 1.36445C6.99139 1.23849 7.16133 1.16634 7.33943 1.16319C7.51754 1.16005 7.68992 1.22616 7.82025 1.3476L11.0011 4.52752L14.1819 1.3476C14.3122 1.22616 14.4846 1.16005 14.6627 1.16319C14.8408 1.16634 15.0108 1.23849 15.1367 1.36445C15.2627 1.49041 15.3348 1.66035 15.338 1.83846C15.3411 2.01657 15.275 2.18894 15.1536 2.31927L11.4869 5.98594C11.4233 6.05004 11.3476 6.10088 11.2642 6.13549C11.1808 6.17011 11.0914 6.18783 11.0011 6.1876Z" fill="#AAAAAA"/>
</svg>
