<svg width="22" height="22" viewBox="0 0 22 22" fill="none" xmlns="http://www.w3.org/2000/svg">
<path d="M13.0212 12.3544L10.1447 10.9179C10.1076 10.8984 10.0665 10.888 10.0246 10.8877C9.97497 10.8885 9.92651 10.9028 9.88434 10.9289C9.84523 10.9525 9.81297 10.9859 9.79078 11.0257C9.76858 11.0656 9.75722 11.1106 9.75784 11.1563V14.5113C9.7581 14.5595 9.77139 14.6068 9.79631 14.6481C9.82122 14.6894 9.85683 14.7232 9.89938 14.7459C9.94192 14.7686 9.98981 14.7794 10.038 14.7772C10.0862 14.7749 10.1328 14.7597 10.1731 14.7331L13.0487 12.8164C13.0883 12.7912 13.1202 12.7557 13.1411 12.7137C13.1619 12.6717 13.1709 12.6248 13.1669 12.578C13.1651 12.5311 13.1506 12.4855 13.1249 12.4461C13.0992 12.4067 13.0634 12.375 13.0212 12.3544Z" fill="url(#paint0_linear_986_36791)"/>
<path d="M17.4193 4.81348H4.58594C3.67455 4.81445 2.80078 5.17692 2.15633 5.82137C1.51188 6.46582 1.14941 7.33959 1.14844 8.25098V17.4176C1.14941 18.329 1.51188 19.2028 2.15633 19.8473C2.80078 20.4917 3.67455 20.8542 4.58594 20.8551H17.4193C18.3306 20.8539 19.2042 20.4914 19.8486 19.847C20.493 19.2026 20.8556 18.329 20.8568 17.4176V8.25098C20.8556 7.33967 20.493 6.46603 19.8486 5.82164C19.2042 5.17724 18.3306 4.81469 17.4193 4.81348ZM13.8104 13.9609L10.9339 15.8776C10.6866 16.0426 10.3992 16.1373 10.1024 16.1518C9.80549 16.1662 9.51028 16.0998 9.24821 15.9595C8.98614 15.8193 8.76705 15.6106 8.61431 15.3556C8.46157 15.1007 8.38091 14.809 8.38094 14.5118V11.1568C8.38116 10.877 8.45289 10.6019 8.58934 10.3575C8.72579 10.1132 8.92242 9.90786 9.16057 9.76092C9.39871 9.61398 9.67046 9.53034 9.95001 9.51795C10.2296 9.50557 10.5076 9.56484 10.7579 9.69014L13.6325 11.1275C13.8898 11.2561 14.1087 11.45 14.2675 11.6898C14.4263 11.9296 14.5194 12.2069 14.5374 12.4939C14.5554 12.781 14.4977 13.0677 14.3701 13.3255C14.2425 13.5832 14.0495 13.803 13.8104 13.9627V13.9609Z" fill="url(#paint1_linear_986_36791)"/>
<path d="M11.0011 6.1876C10.9108 6.18783 10.8213 6.17011 10.7379 6.13549C10.6545 6.10088 10.5788 6.05004 10.5152 5.98594L6.84858 2.31927C6.72714 2.18894 6.66103 2.01657 6.66417 1.83846C6.66731 1.66035 6.73946 1.49041 6.86543 1.36445C6.99139 1.23849 7.16133 1.16634 7.33943 1.16319C7.51754 1.16005 7.68992 1.22616 7.82025 1.3476L11.0011 4.52752L14.1819 1.3476C14.3122 1.22616 14.4846 1.16005 14.6627 1.16319C14.8408 1.16634 15.0108 1.23849 15.1367 1.36445C15.2627 1.49041 15.3348 1.66035 15.338 1.83846C15.3411 2.01657 15.275 2.18894 15.1536 2.31927L11.4869 5.98594C11.4233 6.05004 11.3476 6.10088 11.2642 6.13549C11.1808 6.17011 11.0914 6.18783 11.0011 6.1876Z" fill="url(#paint2_linear_986_36791)"/>
<defs>
<linearGradient id="paint0_linear_986_36791" x1="11.4628" y1="10.8877" x2="11.4628" y2="14.7775" gradientUnits="userSpaceOnUse">
<stop stop-color="#FFD950"/>
<stop offset="1" stop-color="#E78932"/>
</linearGradient>
<linearGradient id="paint1_linear_986_36791" x1="11.0026" y1="4.81348" x2="11.0026" y2="20.8551" gradientUnits="userSpaceOnUse">
<stop stop-color="#FFD950"/>
<stop offset="1" stop-color="#E78932"/>
</linearGradient>
<linearGradient id="paint2_linear_986_36791" x1="11.0011" y1="1.16309" x2="11.0011" y2="6.1876" gradientUnits="userSpaceOnUse">
<stop stop-color="#FFD950"/>
<stop offset="1" stop-color="#E78932"/>
</linearGradient>
</defs>
</svg>
