<svg width="22" height="22" viewBox="0 0 22 22" fill="none" xmlns="http://www.w3.org/2000/svg">
<path fill-rule="evenodd" clip-rule="evenodd" d="M19.6658 4.33458C20.1654 5.31501 20.1654 6.59846 20.1654 9.16537V10.2509C20.1654 11.7993 20.1654 12.5734 19.9802 13.205C19.5409 14.703 18.3696 15.8743 16.8717 16.3135C16.2401 16.4987 15.466 16.4987 13.9175 16.4987H13.4145L13.3548 16.4988C12.4196 16.5047 11.5085 16.7967 10.744 17.3354L10.6955 17.3701L8.3023 19.0795C7.48191 19.6654 6.40384 18.8192 6.77827 17.8831C7.04351 17.22 6.55517 16.4987 5.84099 16.4987H5.28939C3.37994 16.4987 1.83203 14.9508 1.83203 13.0413V9.16537C1.83203 6.59846 1.83203 5.31501 2.33159 4.33458C2.771 3.47217 3.47217 2.771 4.33458 2.33159C5.31501 1.83203 6.59846 1.83203 9.16536 1.83203H12.832C15.399 1.83203 16.6824 1.83203 17.6629 2.33159C18.5253 2.771 19.2264 3.47217 19.6658 4.33458ZM8.2487 9.16537C8.2487 9.67164 7.83829 10.082 7.33203 10.082C6.82577 10.082 6.41536 9.67164 6.41536 9.16537C6.41536 8.65911 6.82577 8.2487 7.33203 8.2487C7.83829 8.2487 8.2487 8.65911 8.2487 9.16537ZM11.9154 9.16537C11.9154 9.67164 11.505 10.082 10.9987 10.082C10.4924 10.082 10.082 9.67164 10.082 9.16537C10.082 8.65911 10.4924 8.2487 10.9987 8.2487C11.505 8.2487 11.9154 8.65911 11.9154 9.16537ZM14.6654 10.082C15.1716 10.082 15.582 9.67164 15.582 9.16537C15.582 8.65911 15.1716 8.2487 14.6654 8.2487C14.1591 8.2487 13.7487 8.65911 13.7487 9.16537C13.7487 9.67164 14.1591 10.082 14.6654 10.082Z" fill="url(#paint0_linear_986_40956)"/>
<defs>
<linearGradient id="paint0_linear_986_40956" x1="10.9987" y1="1.83203" x2="10.9987" y2="19.2728" gradientUnits="userSpaceOnUse">
<stop stop-color="#FFD950"/>
<stop offset="1" stop-color="#E78932"/>
</linearGradient>
</defs>
</svg>
