<svg width="24" height="24" viewBox="0 0 24 24" fill="none" xmlns="http://www.w3.org/2000/svg">
<g clip-path="url(#clip0_986_31827)">
<path fill-rule="evenodd" clip-rule="evenodd" d="M12 0C5.38125 0 0 5.38125 0 12C0 18.6187 5.38125 24 12 24C18.6187 24 24 18.6187 24 12C24 5.38125 18.6187 0 12 0Z" fill="#4BAE4F"/>
<path fill-rule="evenodd" clip-rule="evenodd" d="M17.8027 7.95488C18.0934 8.24551 18.0934 8.72363 17.8027 9.01426L10.7715 16.0455C10.6262 16.1908 10.434 16.2658 10.2418 16.2658C10.0496 16.2658 9.85742 16.1908 9.71211 16.0455L6.19648 12.5299C5.90586 12.2393 5.90586 11.7611 6.19648 11.4705C6.48711 11.1799 6.96523 11.1799 7.25586 11.4705L10.2418 14.4564L16.7434 7.95488C17.034 7.65957 17.5121 7.65957 17.8027 7.95488Z" fill="white"/>
</g>
<defs>
<clipPath id="clip0_986_31827">
<rect width="24" height="24" fill="white"/>
</clipPath>
</defs>
</svg>
