<svg width="67" height="67" viewBox="0 0 67 67" fill="none" xmlns="http://www.w3.org/2000/svg">
<path d="M67 33.5C67 52.0015 52.0015 67 33.5 67C14.9985 67 0 52.0015 0 33.5C0 14.9985 14.9985 0 33.5 0C52.0015 0 67 14.9985 67 33.5ZM6.7 33.5C6.7 48.3012 18.6988 60.3 33.5 60.3C48.3012 60.3 60.3 48.3012 60.3 33.5C60.3 18.6988 48.3012 6.7 33.5 6.7C18.6988 6.7 6.7 18.6988 6.7 33.5Z" fill="#393747"/>
<path d="M33.5 3.35C33.5 1.49985 35.0035 -0.0173484 36.8444 0.167361C40.0964 0.493652 43.2893 1.29471 46.3199 2.55004C50.3843 4.23357 54.0773 6.70116 57.1881 9.81192C60.2988 12.9227 62.7664 16.6157 64.45 20.6801C65.7053 23.7107 66.5063 26.9036 66.8326 30.1556C67.0173 31.9965 65.5002 33.5 63.65 33.5C61.7998 33.5 60.3216 31.9944 60.0909 30.1587C59.7929 27.7873 59.1784 25.4614 58.26 23.2441C56.9131 19.9926 54.9391 17.0382 52.4505 14.5495C49.9619 12.0609 47.0074 10.0869 43.7559 8.74003C41.5386 7.82157 39.2127 7.20708 36.8413 6.9091C35.0056 6.67843 33.5 5.20015 33.5 3.35Z" fill="url(#paint0_linear_986_29986)"/>
<path d="M18.585 36.945C18.925 36.675 19.08 36.55 19.05 36.57C20.03 35.76 20.8 35.095 21.36 34.575C21.93 34.055 22.41 33.51 22.8 32.94C23.19 32.37 23.385 31.815 23.385 31.275C23.385 30.865 23.29 30.545 23.1 30.315C22.91 30.085 22.625 29.97 22.245 29.97C21.865 29.97 21.565 30.115 21.345 30.405C21.135 30.685 21.03 31.085 21.03 31.605H18.555C18.575 30.755 18.755 30.045 19.095 29.475C19.445 28.905 19.9 28.485 20.46 28.215C21.03 27.945 21.66 27.81 22.35 27.81C23.54 27.81 24.435 28.115 25.035 28.725C25.645 29.335 25.95 30.13 25.95 31.11C25.95 32.18 25.585 33.175 24.855 34.095C24.125 35.005 23.195 35.895 22.065 36.765H26.115V38.85H18.585V36.945ZM34.9543 30.285H30.2743V32.355C30.4743 32.135 30.7543 31.955 31.1143 31.815C31.4743 31.675 31.8643 31.605 32.2843 31.605C33.0343 31.605 33.6543 31.775 34.1443 32.115C34.6443 32.455 35.0093 32.895 35.2393 33.435C35.4693 33.975 35.5843 34.56 35.5843 35.19C35.5843 36.36 35.2543 37.29 34.5943 37.98C33.9343 38.66 33.0043 39 31.8043 39C31.0043 39 30.3093 38.865 29.7193 38.595C29.1293 38.315 28.6743 37.93 28.3543 37.44C28.0343 36.95 27.8593 36.385 27.8293 35.745H30.3343C30.3943 36.055 30.5393 36.315 30.7693 36.525C30.9993 36.725 31.3143 36.825 31.7143 36.825C32.1843 36.825 32.5343 36.675 32.7643 36.375C32.9943 36.075 33.1093 35.675 33.1093 35.175C33.1093 34.685 32.9893 34.31 32.7493 34.05C32.5093 33.79 32.1593 33.66 31.6993 33.66C31.3593 33.66 31.0793 33.745 30.8593 33.915C30.6393 34.075 30.4943 34.29 30.4243 34.56H27.9493V28.035H34.9543V30.285ZM36.7902 30.81C36.7902 30 37.0202 29.375 37.4802 28.935C37.9502 28.495 38.5552 28.275 39.2952 28.275C40.0352 28.275 40.6352 28.495 41.0952 28.935C41.5552 29.375 41.7852 30 41.7852 30.81C41.7852 31.62 41.5552 32.245 41.0952 32.685C40.6352 33.125 40.0352 33.345 39.2952 33.345C38.5552 33.345 37.9502 33.125 37.4802 32.685C37.0202 32.245 36.7902 31.62 36.7902 30.81ZM46.9752 28.44L41.2002 39H38.7252L44.5002 28.44H46.9752ZM39.2802 29.775C38.8002 29.775 38.5602 30.12 38.5602 30.81C38.5602 31.49 38.8002 31.83 39.2802 31.83C39.5102 31.83 39.6902 31.745 39.8202 31.575C39.9502 31.405 40.0152 31.15 40.0152 30.81C40.0152 30.12 39.7702 29.775 39.2802 29.775ZM43.9302 36.63C43.9302 35.82 44.1602 35.195 44.6202 34.755C45.0802 34.315 45.6802 34.095 46.4202 34.095C47.1602 34.095 47.7602 34.315 48.2202 34.755C48.6802 35.195 48.9102 35.82 48.9102 36.63C48.9102 37.44 48.6802 38.065 48.2202 38.505C47.7602 38.945 47.1602 39.165 46.4202 39.165C45.6802 39.165 45.0802 38.945 44.6202 38.505C44.1602 38.065 43.9302 37.44 43.9302 36.63ZM46.4052 35.595C46.1752 35.595 45.9952 35.68 45.8652 35.85C45.7452 36.02 45.6852 36.28 45.6852 36.63C45.6852 37.31 45.9252 37.65 46.4052 37.65C46.6352 37.65 46.8152 37.565 46.9452 37.395C47.0752 37.225 47.1402 36.97 47.1402 36.63C47.1402 36.29 47.0752 36.035 46.9452 35.865C46.8152 35.685 46.6352 35.595 46.4052 35.595Z" fill="white"/>
<defs>
<linearGradient id="paint0_linear_986_29986" x1="33.5" y1="0" x2="33.5" y2="67" gradientUnits="userSpaceOnUse">
<stop stop-color="#FFD950"/>
<stop offset="1" stop-color="#E78932"/>
</linearGradient>
</defs>
</svg>
