<svg width="24" height="24" viewBox="0 0 24 24" fill="none" xmlns="http://www.w3.org/2000/svg">
<path fill-rule="evenodd" clip-rule="evenodd" d="M10.1722 1.45998H13.8278C14.0617 1.45983 14.2655 1.4597 14.4579 1.49044C15.2182 1.61185 15.8762 2.08606 16.2319 2.76896C16.3218 2.94182 16.3861 3.1352 16.46 3.35717L16.5807 3.71922C16.6011 3.78051 16.607 3.79786 16.6118 3.81153C16.8013 4.33489 17.2921 4.68868 17.8484 4.70278C17.8631 4.70315 17.8809 4.70321 17.9459 4.70321H21.1891C21.6369 4.70321 21.9999 5.06623 21.9999 5.51402C21.9999 5.96181 21.6369 6.32482 21.1891 6.32482H2.8108C2.36301 6.32482 2 5.96181 2 5.51402C2 5.06623 2.36301 4.70321 2.8108 4.70321H6.0541C6.11902 4.70321 6.13693 4.70315 6.15156 4.70278C6.70793 4.68868 7.19877 4.33491 7.38807 3.81155C7.39306 3.7978 7.39878 3.78081 7.41931 3.71922L7.53996 3.35721C7.61379 3.13524 7.67814 2.94182 7.76815 2.76896C8.12375 2.08606 8.78169 1.61185 9.54201 1.49044C9.73446 1.4597 9.9383 1.45983 10.1722 1.45998ZM8.7655 4.70321C8.82118 4.594 8.87053 4.48051 8.91299 4.36315C8.92587 4.32752 8.93852 4.28957 8.95476 4.24084L9.06265 3.91716C9.16121 3.62147 9.18392 3.56116 9.20642 3.51793C9.32496 3.2903 9.54428 3.13222 9.79771 3.09175C9.84587 3.08406 9.91019 3.08161 10.2219 3.08161H13.778C14.0897 3.08161 14.1541 3.08406 14.2023 3.09175C14.4557 3.13222 14.675 3.2903 14.7936 3.51793C14.8161 3.56116 14.8388 3.62146 14.9373 3.91716L15.0452 4.24065L15.087 4.36317C15.1295 4.48053 15.1788 4.594 15.2345 4.70321H8.7655Z" fill="#E06852"/>
<path d="M5.42062 8.16315C5.39084 7.71634 5.00449 7.37829 4.55768 7.40808C4.11089 7.43786 3.77282 7.82421 3.80261 8.27102L4.30363 15.7863C4.39606 17.1731 4.47072 18.2932 4.64582 19.1722C4.82787 20.086 5.13751 20.8494 5.77706 21.4476C6.41662 22.046 7.19883 22.3042 8.12277 22.425C9.01143 22.5413 10.134 22.5413 11.5238 22.5413H12.474C13.8638 22.5413 14.9864 22.5413 15.8751 22.425C16.799 22.3042 17.5813 22.046 18.2208 21.4476C18.8604 20.8494 19.17 20.086 19.3521 19.1722C19.5272 18.2932 19.6018 17.1731 19.6942 15.7863L20.1953 8.27102C20.225 7.82421 19.887 7.43786 19.4402 7.40808C18.9934 7.37829 18.607 7.71634 18.5773 8.16315L18.08 15.6215C17.9829 17.0787 17.9137 18.0926 17.7617 18.8554C17.6142 19.5953 17.4085 19.987 17.1129 20.2636C16.8174 20.54 16.4128 20.7193 15.6647 20.8172C14.8935 20.918 13.8773 20.9197 12.417 20.9197H11.5809C10.1206 20.9197 9.10433 20.918 8.33309 20.8172C7.58499 20.7193 7.1805 20.54 6.88492 20.2636C6.58935 19.987 6.38358 19.5953 6.23617 18.8554C6.08422 18.0926 6.015 17.0787 5.91785 15.6215L5.42062 8.16315Z" fill="#E06852"/>
<path d="M9.21651 10.1125C9.66209 10.0679 10.0595 10.393 10.104 10.8386L10.6445 16.244C10.6891 16.6895 10.364 17.0869 9.91839 17.1314C9.47283 17.176 9.07551 16.8509 9.03095 16.4053L8.49041 10.9999C8.44586 10.5544 8.77095 10.157 9.21651 10.1125Z" fill="#E06852"/>
<path d="M14.7836 10.1125C15.2292 10.157 15.5543 10.5544 15.5098 10.9999L14.9692 16.4053C14.9247 16.8509 14.5273 17.176 14.0818 17.1314C13.6362 17.0869 13.3111 16.6895 13.3556 16.244L13.8962 10.8386C13.9407 10.393 14.3381 10.0679 14.7836 10.1125Z" fill="#E06852"/>
</svg>
