<svg width="40" height="40" viewBox="0 0 40 40" fill="none" xmlns="http://www.w3.org/2000/svg">
<rect opacity="0.1" width="40" height="40" rx="16" fill="url(#paint0_linear_1_293)"/>
<path d="M28.2563 17.4013C27.8916 17.3483 27.5435 17.2137 27.238 17.0076C26.9326 16.8015 26.6775 16.5291 26.4919 16.2107C26.3063 15.8923 26.1949 15.5362 26.166 15.1688C26.1371 14.8014 26.1915 14.4322 26.325 14.0888C26.4099 13.8642 26.4224 13.6187 26.3608 13.3867C26.2991 13.1547 26.1664 12.9478 25.9813 12.795C25.1638 12.1086 24.2333 11.5693 23.2313 11.2013C23.0031 11.1165 22.754 11.1059 22.5194 11.171C22.2849 11.2361 22.0769 11.3735 21.925 11.5638C21.6964 11.8561 21.4043 12.0925 21.0708 12.255C20.7372 12.4176 20.3711 12.5021 20 12.5021C19.629 12.5021 19.2628 12.4176 18.9293 12.255C18.5957 12.0925 18.3036 11.8561 18.075 11.5638C17.9232 11.3735 17.7151 11.2361 17.4806 11.171C17.246 11.1059 16.9969 11.1165 16.7688 11.2013C15.8436 11.5411 14.9785 12.0263 14.2063 12.6388C14.0116 12.7929 13.8714 13.0053 13.8062 13.2448C13.7409 13.4844 13.7541 13.7385 13.8438 13.97C13.988 14.3226 14.0476 14.704 14.0177 15.0838C13.9879 15.4635 13.8695 15.831 13.672 16.1567C13.4745 16.4824 13.2034 16.7573 12.8805 16.9593C12.5576 17.1614 12.1918 17.2849 11.8125 17.32C11.5663 17.3464 11.335 17.451 11.1527 17.6187C10.9704 17.7863 10.8468 18.0081 10.8 18.2513C10.6836 18.8273 10.625 19.4136 10.625 20.0013C10.6242 20.4933 10.6639 20.9845 10.7438 21.47C10.7835 21.721 10.9049 21.9519 11.089 22.127C11.2731 22.3021 11.5099 22.4117 11.7625 22.4388C12.1501 22.4752 12.5234 22.6038 12.8511 22.8141C13.1788 23.0243 13.4513 23.31 13.6459 23.6472C13.8405 23.9844 13.9515 24.3633 13.9696 24.7522C13.9877 25.1411 13.9124 25.5287 13.75 25.8825C13.6437 26.1127 13.6174 26.3717 13.6751 26.6186C13.7328 26.8654 13.8714 27.0859 14.0688 27.245C14.8813 27.919 15.8029 28.4495 16.7938 28.8138C16.9205 28.8577 17.0534 28.8809 17.1875 28.8825C17.3714 28.8821 17.5525 28.8377 17.7156 28.7528C17.8787 28.668 18.0191 28.5453 18.125 28.395C18.3478 28.0705 18.6464 27.8052 18.9949 27.6222C19.3434 27.4392 19.7314 27.3441 20.125 27.345C20.5064 27.3455 20.8825 27.435 21.2232 27.6065C21.5639 27.7779 21.8598 28.0265 22.0875 28.3325C22.239 28.5361 22.4535 28.6839 22.6977 28.7528C22.9418 28.8218 23.202 28.8081 23.4375 28.7138C24.3436 28.3491 25.1871 27.8451 25.9375 27.22C26.126 27.0642 26.2603 26.8525 26.3209 26.6156C26.3815 26.3786 26.3655 26.1285 26.275 25.9013C26.128 25.5533 26.0639 25.1758 26.0878 24.7988C26.1117 24.4218 26.2228 24.0555 26.4125 23.7288C26.6023 23.4021 26.8653 23.1239 27.1809 22.9163C27.4966 22.7087 27.8561 22.5773 28.2313 22.5325C28.4745 22.4989 28.7007 22.3887 28.8771 22.2179C29.0536 22.0471 29.171 21.8246 29.2125 21.5825C29.3129 21.0612 29.3673 20.5321 29.375 20.0013C29.3751 19.4414 29.3228 18.8827 29.2188 18.3325C29.1766 18.0958 29.0609 17.8785 28.8881 17.7113C28.7153 17.5441 28.4942 17.4356 28.2563 17.4013ZM23.125 20.0013C23.125 20.6193 22.9417 21.2235 22.5984 21.7374C22.255 22.2513 21.7669 22.6519 21.1959 22.8884C20.6249 23.1249 19.9965 23.1868 19.3904 23.0662C18.7842 22.9457 18.2273 22.648 17.7903 22.211C17.3533 21.7739 17.0556 21.2171 16.9351 20.6109C16.8145 20.0047 16.8764 19.3764 17.1129 18.8054C17.3494 18.2344 17.75 17.7463 18.2639 17.4029C18.7778 17.0596 19.3819 16.8763 20 16.8763C20.8288 16.8763 21.6237 17.2055 22.2097 17.7916C22.7958 18.3776 23.125 19.1725 23.125 20.0013Z" fill="url(#paint1_linear_1_293)"/>
<defs>
<linearGradient id="paint0_linear_1_293" x1="20" y1="0" x2="20" y2="40" gradientUnits="userSpaceOnUse">
<stop stop-color="#FFD950"/>
<stop offset="1" stop-color="#E78932"/>
</linearGradient>
<linearGradient id="paint1_linear_1_293" x1="20" y1="11.1289" x2="20" y2="28.8825" gradientUnits="userSpaceOnUse">
<stop stop-color="#FFD950"/>
<stop offset="1" stop-color="#E78932"/>
</linearGradient>
</defs>
</svg>
