<svg width="15" height="9" viewBox="0 0 15 9" fill="none" xmlns="http://www.w3.org/2000/svg">
<path d="M7.50003 8.6667C7.36294 8.66749 7.22704 8.64121 7.10013 8.58937C6.97321 8.53754 6.85778 8.46116 6.76045 8.36461L0.510447 2.11461C0.314297 1.91846 0.204102 1.65243 0.204102 1.37503C0.204102 1.09763 0.314297 0.831597 0.510447 0.635447C0.706597 0.439297 0.972633 0.329102 1.25003 0.329102C1.52743 0.329102 1.79346 0.439297 1.98961 0.635447L7.50003 6.15628L13.0104 0.645864C13.2097 0.475212 13.466 0.386038 13.7282 0.396164C13.9904 0.40629 14.2391 0.514971 14.4246 0.700486C14.6101 0.886001 14.7188 1.13469 14.7289 1.39685C14.739 1.65901 14.6498 1.91534 14.4792 2.11461L8.2292 8.36461C8.03518 8.55706 7.7733 8.66555 7.50003 8.6667Z" fill="white"/>
</svg>
