<svg width="24" height="24" viewBox="0 0 24 24" fill="none" xmlns="http://www.w3.org/2000/svg">
<path fill-rule="evenodd" clip-rule="evenodd" d="M16.577 22.3681H7.753C4.312 22.3681 2 19.9531 2 16.3591V8.04513C2 4.45113 4.312 2.03613 7.753 2.03613H11.492C11.906 2.03613 12.242 2.37213 12.242 2.78613C12.242 3.20013 11.906 3.53613 11.492 3.53613H7.753C5.169 3.53613 3.5 5.30613 3.5 8.04513V16.3591C3.5 19.0981 5.169 20.8681 7.753 20.8681H16.577C19.161 20.8681 20.831 19.0981 20.831 16.3591V12.3311C20.831 11.9171 21.167 11.5811 21.581 11.5811C21.995 11.5811 22.331 11.9171 22.331 12.3311V16.3591C22.331 19.9531 20.018 22.3681 16.577 22.3681Z" fill="#3FBC63"/>
<path fill-rule="evenodd" clip-rule="evenodd" d="M8.86689 15.428H11.8439C12.2239 15.428 12.5799 15.281 12.8489 15.012L20.3579 7.503C20.6659 7.195 20.8359 6.785 20.8359 6.349C20.8359 5.912 20.6659 5.501 20.3579 5.193L19.1409 3.976C18.5039 3.341 17.4679 3.341 16.8299 3.976L9.35689 11.449C9.09789 11.708 8.95089 12.052 8.94189 12.417L8.86689 15.428ZM11.8439 16.928H8.09789C7.89589 16.928 7.70188 16.846 7.56088 16.701C7.41988 16.557 7.34289 16.362 7.34789 16.159L7.44189 12.38C7.46089 11.628 7.76389 10.921 8.29589 10.388L15.7699 2.915C16.9919 1.695 18.9789 1.695 20.2009 2.915L21.4179 4.132C22.0109 4.724 22.3369 5.511 22.3359 6.349C22.3359 7.187 22.0099 7.973 21.4179 8.564L13.9089 16.073C13.3579 16.624 12.6239 16.928 11.8439 16.928Z" fill="#3FBC63"/>
<path fill-rule="evenodd" clip-rule="evenodd" d="M19.7318 9.91636C19.5398 9.91636 19.3478 9.84336 19.2018 9.69636L14.6358 5.13036C14.3428 4.83736 14.3428 4.36236 14.6358 4.06936C14.9288 3.77636 15.4028 3.77636 15.6958 4.06936L20.2618 8.63636C20.5548 8.92936 20.5548 9.40336 20.2618 9.69636C20.1158 9.84336 19.9238 9.91636 19.7318 9.91636Z" fill="#3FBC63"/>
</svg>
