<svg width="22" height="22" viewBox="0 0 22 22" fill="none" xmlns="http://www.w3.org/2000/svg">
<path fill-rule="evenodd" clip-rule="evenodd" d="M5.36781 1.69231C3.34385 1.69231 1.70311 3.33393 1.70311 5.359V16.641C1.70311 18.6661 3.34385 20.3077 5.36781 20.3077H16.6437C18.6677 20.3077 20.3084 18.6661 20.3084 16.641V5.359C20.3084 3.33393 18.6677 1.69231 16.6437 1.69231H5.36781ZM0.0117188 5.359C0.0117188 2.39929 2.40972 0 5.36781 0H16.6437C19.6018 0 21.9998 2.39929 21.9998 5.359V16.641C21.9998 19.6007 19.6018 22 16.6437 22H5.36781C2.40972 22 0.0117188 19.6007 0.0117188 16.641V5.359Z" fill="url(#paint0_linear_1105_994)"/>
<path fill-rule="evenodd" clip-rule="evenodd" d="M13.8425 6.6598C14.2084 6.9502 14.2698 7.48247 13.9795 7.84862L9.26615 13.7942C8.99275 14.1391 8.50062 14.2166 8.13447 13.9725L5.10119 11.9491L1.51321 16.5634C1.2264 16.9322 0.695064 16.9986 0.326428 16.7116C-0.0422083 16.4247 -0.108545 15.893 0.178261 15.5242L4.24886 10.2893C4.52091 9.93943 5.01676 9.85894 5.38541 10.1049L8.42485 12.1323L12.6543 6.79695C12.9446 6.4308 13.4766 6.3694 13.8425 6.6598Z" fill="url(#paint1_linear_1105_994)"/>
<path fill-rule="evenodd" clip-rule="evenodd" d="M9.39453 7.186C9.39453 6.71865 9.77313 6.33984 10.2402 6.33984H13.8034C14.2705 6.33984 14.6491 6.71865 14.6491 7.186V10.7398C14.6491 11.2071 14.2705 11.586 13.8034 11.586C13.3364 11.586 12.9577 11.2071 12.9577 10.7398V8.03215H10.2402C9.77313 8.03215 9.39453 7.65328 9.39453 7.186Z" fill="url(#paint2_linear_1105_994)"/>
<defs>
<linearGradient id="paint0_linear_1105_994" x1="11.0058" y1="0" x2="11.0058" y2="22" gradientUnits="userSpaceOnUse">
<stop stop-color="#FFD950"/>
<stop offset="1" stop-color="#E78932"/>
</linearGradient>
<linearGradient id="paint1_linear_1105_994" x1="7.08133" y1="6.47656" x2="7.08133" y2="16.89" gradientUnits="userSpaceOnUse">
<stop stop-color="#FFD950"/>
<stop offset="1" stop-color="#E78932"/>
</linearGradient>
<linearGradient id="paint2_linear_1105_994" x1="12.0218" y1="6.33984" x2="12.0218" y2="11.586" gradientUnits="userSpaceOnUse">
<stop stop-color="#FFD950"/>
<stop offset="1" stop-color="#E78932"/>
</linearGradient>
</defs>
</svg>
