<svg width="40" height="40" viewBox="0 0 40 40" fill="none" xmlns="http://www.w3.org/2000/svg">
<rect opacity="0.1" width="40" height="40" rx="16" fill="url(#paint0_linear_1_303)"/>
<g clip-path="url(#clip0_1_303)">
<path fill-rule="evenodd" clip-rule="evenodd" d="M18.7906 10.625L26.7525 15.2215C26.947 15.3339 27.0142 15.5849 26.902 15.7794L26.3685 16.703C26.2562 16.8975 26.0052 16.965 25.8108 16.8526L18.7907 12.8001L11.7706 16.8526C11.5761 16.965 11.3252 16.8975 11.2129 16.703L10.6794 15.7794C10.5671 15.5849 10.6343 15.3339 10.8289 15.2215L18.7906 10.625ZM22.365 25.9406C23.132 25.9406 23.7575 25.315 23.7575 24.5481C23.7575 23.7812 23.132 23.1555 22.365 23.1555C21.5981 23.1555 20.9725 23.7811 20.9725 24.5481C20.9725 25.3152 21.598 25.9406 22.365 25.9406ZM19.6448 28.0149C19.6448 28.7661 20.8627 29.375 22.365 29.375C23.8673 29.375 25.0852 28.7661 25.0852 28.0149C25.0852 27.0755 24.2665 26.4079 23.3729 26.1118C22.7596 26.5086 21.9704 26.5086 21.3571 26.1118C20.4635 26.4079 19.6448 27.0755 19.6448 28.0149H19.6448ZM25.87 23.2677C26.8582 23.2677 27.6643 22.4617 27.6643 21.4736C27.6643 20.4854 26.8582 19.6791 25.87 19.6791C24.8818 19.6791 24.0757 20.4852 24.0757 21.4736C24.0757 22.462 24.8817 23.2677 25.87 23.2677ZM18.86 23.2677C19.8482 23.2677 20.6543 22.4617 20.6543 21.4736C20.6543 20.4854 19.8482 19.6791 18.86 19.6791C17.8718 19.6791 17.0657 20.4852 17.0657 21.4736C17.0657 22.462 17.8717 23.2677 18.86 23.2677ZM25.5272 27.6847C25.38 26.7798 24.6374 26.1144 23.7754 25.7607C24.2649 25.1924 24.3679 24.3834 24.0262 23.7096C24.257 23.5974 24.499 23.5054 24.7432 23.4351C25.44 23.8371 26.3001 23.8372 26.9968 23.4351C28.2129 23.7854 29.375 24.6702 29.375 25.9406C29.375 26.9085 27.8057 27.6931 25.87 27.6931C25.7543 27.6931 25.64 27.6902 25.5272 27.6847V27.6847ZM20.7039 23.7096C20.3622 24.3834 20.4652 25.1924 20.9546 25.7607C20.0926 26.1143 19.3501 26.7798 19.2029 27.6846C19.09 27.6901 18.9757 27.693 18.86 27.693C16.9243 27.693 15.355 26.9084 15.355 25.9405C15.355 24.6701 16.5171 23.7853 17.7332 23.435C18.43 23.8371 19.2901 23.8371 19.9868 23.435C20.231 23.5054 20.473 23.5973 20.7039 23.7095V23.7096ZM25.099 16.9829L18.7906 13.3413L12.4823 16.983V25.7721C12.4823 26.0348 12.6964 26.2486 12.9587 26.2486H14.9207C14.8983 26.1502 14.8863 26.0475 14.8863 25.9405C14.8863 24.5489 16.0067 23.5528 17.2787 23.09C16.8584 22.6788 16.597 22.1059 16.597 21.4735C16.597 20.2265 17.613 19.2104 18.86 19.2104C20.1071 19.2104 21.1231 20.2265 21.1231 21.4735C21.1231 22.1058 20.8616 22.6786 20.4415 23.0898C20.6215 23.1553 20.7985 23.2315 20.9698 23.318C21.7123 22.4767 23.0177 22.4767 23.7603 23.318C23.9315 23.2315 24.1085 23.1553 24.2886 23.0898C23.8684 22.6787 23.607 22.1058 23.607 21.4735C23.607 20.497 24.23 19.6622 25.099 19.3459V16.9829H25.099Z" fill="url(#paint1_linear_1_303)"/>
</g>
<defs>
<linearGradient id="paint0_linear_1_303" x1="20" y1="0" x2="20" y2="40" gradientUnits="userSpaceOnUse">
<stop stop-color="#FFD950"/>
<stop offset="1" stop-color="#E78932"/>
</linearGradient>
<linearGradient id="paint1_linear_1_303" x1="20" y1="10.625" x2="20" y2="29.375" gradientUnits="userSpaceOnUse">
<stop stop-color="#FFD950"/>
<stop offset="1" stop-color="#E78932"/>
</linearGradient>
<clipPath id="clip0_1_303">
<rect width="20" height="20" fill="white" transform="translate(10 10)"/>
</clipPath>
</defs>
</svg>
