<svg width="40" height="40" viewBox="0 0 40 40" fill="none" xmlns="http://www.w3.org/2000/svg">
<rect opacity="0.1" width="40" height="40" rx="16" fill="url(#paint0_linear_1_248)"/>
<path d="M23.75 21.75C23.75 21.9158 23.8158 22.0747 23.9331 22.1919C24.0503 22.3092 24.2092 22.375 24.375 22.375H27.5V21.125H24.375C24.2092 21.125 24.0503 21.1908 23.9331 21.3081C23.8158 21.4253 23.75 21.5842 23.75 21.75Z" fill="url(#paint1_linear_1_248)"/>
<path d="M26.25 16.8687V16.125C26.25 15.6277 26.0525 15.1508 25.7008 14.7992C25.3492 14.4475 24.8723 14.25 24.375 14.25H22.65L21.4 15.5H24.375C24.5408 15.5 24.6997 15.5658 24.8169 15.6831C24.9342 15.8003 25 15.9592 25 16.125V16.75H14.375C14.2092 16.75 14.0503 16.6842 13.9331 16.5669C13.8158 16.4497 13.75 16.2908 13.75 16.125C13.75 15.9592 13.8158 15.8003 13.9331 15.6831C14.0503 15.5658 14.2092 15.5 14.375 15.5H17.35L16.1 14.25H14.375C13.8777 14.25 13.4008 14.4475 13.0492 14.7992C12.6975 15.1508 12.5 15.6277 12.5 16.125V24.875C12.5 25.3723 12.6975 25.8492 13.0492 26.2008C13.4008 26.5525 13.8777 26.75 14.375 26.75H25.625C26.1223 26.75 26.5992 26.5525 26.9508 26.2008C27.3025 25.8492 27.5 25.3723 27.5 24.875V23.625H24.375C23.8777 23.625 23.4008 23.4275 23.0492 23.0758C22.6975 22.7242 22.5 22.2473 22.5 21.75C22.5 21.2527 22.6975 20.7758 23.0492 20.4242C23.4008 20.0725 23.8777 19.875 24.375 19.875H27.5V18.625C27.4976 18.2392 27.3763 17.8636 27.1526 17.5493C26.9289 17.235 26.6137 16.9973 26.25 16.8687Z" fill="url(#paint2_linear_1_248)"/>
<path d="M18.9301 15.3187C18.9882 15.3773 19.0573 15.4238 19.1335 15.4556C19.2097 15.4873 19.2914 15.5036 19.3739 15.5036C19.4564 15.5036 19.5381 15.4873 19.6142 15.4556C19.6904 15.4238 19.7595 15.3773 19.8176 15.3187L21.6926 13.4437C21.7793 13.3559 21.8381 13.2443 21.8614 13.123C21.8848 13.0018 21.8717 12.8763 21.8239 12.7625C21.777 12.6484 21.6974 12.5507 21.595 12.4817C21.4927 12.4127 21.3723 12.3756 21.2489 12.375H19.9989V9.875C19.9989 9.70924 19.933 9.55027 19.8158 9.43306C19.6986 9.31585 19.5396 9.25 19.3739 9.25C19.2081 9.25 19.0491 9.31585 18.9319 9.43306C18.8147 9.55027 18.7489 9.70924 18.7489 9.875V12.375H17.4989C17.3755 12.3756 17.255 12.4127 17.1527 12.4817C17.0504 12.5507 16.9708 12.6484 16.9239 12.7625C16.876 12.8763 16.8629 13.0018 16.8863 13.123C16.9096 13.2443 16.9684 13.3559 17.0551 13.4437L18.9301 15.3187Z" fill="url(#paint3_linear_1_248)"/>
<defs>
<linearGradient id="paint0_linear_1_248" x1="20" y1="0" x2="20" y2="40" gradientUnits="userSpaceOnUse">
<stop stop-color="#FFD950"/>
<stop offset="1" stop-color="#E78932"/>
</linearGradient>
<linearGradient id="paint1_linear_1_248" x1="25.625" y1="21.125" x2="25.625" y2="22.375" gradientUnits="userSpaceOnUse">
<stop stop-color="#FFD950"/>
<stop offset="1" stop-color="#E78932"/>
</linearGradient>
<linearGradient id="paint2_linear_1_248" x1="20" y1="14.25" x2="20" y2="26.75" gradientUnits="userSpaceOnUse">
<stop stop-color="#FFD950"/>
<stop offset="1" stop-color="#E78932"/>
</linearGradient>
<linearGradient id="paint3_linear_1_248" x1="19.3739" y1="9.25" x2="19.3739" y2="15.5036" gradientUnits="userSpaceOnUse">
<stop stop-color="#FFD950"/>
<stop offset="1" stop-color="#E78932"/>
</linearGradient>
</defs>
</svg>
