<svg width="22" height="22" viewBox="0 0 22 22" fill="none" xmlns="http://www.w3.org/2000/svg">
<path fill-rule="evenodd" clip-rule="evenodd" d="M5.35899 1.69231C3.33393 1.69231 1.69231 3.33393 1.69231 5.359V16.641C1.69231 18.6661 3.33393 20.3077 5.35899 20.3077H16.641C18.6661 20.3077 20.3077 18.6661 20.3077 16.641V5.359C20.3077 3.33393 18.6661 1.69231 16.641 1.69231H5.35899ZM0 5.359C0 2.39929 2.39929 0 5.35899 0H16.641C19.6007 0 22 2.39929 22 5.359V16.641C22 19.6007 19.6007 22 16.641 22H5.35899C2.39929 22 0 19.6007 0 16.641V5.359Z" fill="url(#paint0_linear_1105_987)"/>
<path fill-rule="evenodd" clip-rule="evenodd" d="M7.48101 6.16272C7.70777 5.94576 8.07544 5.94576 8.3022 6.16272L10.6248 8.38494C10.8516 8.6019 10.8516 8.95366 10.6248 9.17061C10.3981 9.38757 10.0305 9.38757 9.8037 9.17061L8.47227 7.89678V15.4444C8.47227 15.7513 8.2123 16 7.89161 16C7.57092 16 7.31094 15.7513 7.31094 15.4444V7.89678L5.97954 9.17061C5.75278 9.38757 5.38511 9.38757 5.15835 9.17061C4.93159 8.95366 4.93159 8.6019 5.15835 8.38494L7.48101 6.16272Z" fill="url(#paint1_linear_1105_987)"/>
<path fill-rule="evenodd" clip-rule="evenodd" d="M14.4975 15.8373C14.2707 16.0542 13.9031 16.0542 13.6763 15.8373L11.3537 13.615C11.1269 13.3981 11.1269 13.0464 11.3537 12.8294C11.5804 12.6124 11.948 12.6124 12.1748 12.8294L13.5062 14.1032V6.55556C13.5062 6.24873 13.7662 6 14.0869 6C14.4076 6 14.6676 6.24873 14.6676 6.55556V14.1032L15.999 12.8294C16.2258 12.6124 16.5934 12.6124 16.8201 12.8294C17.0469 13.0464 17.0469 13.3981 16.8201 13.615L14.4975 15.8373Z" fill="url(#paint2_linear_1105_987)"/>
<defs>
<linearGradient id="paint0_linear_1105_987" x1="11" y1="0" x2="11" y2="22" gradientUnits="userSpaceOnUse">
<stop stop-color="#FFD950"/>
<stop offset="1" stop-color="#E78932"/>
</linearGradient>
<linearGradient id="paint1_linear_1105_987" x1="7.8916" y1="6" x2="7.8916" y2="16" gradientUnits="userSpaceOnUse">
<stop stop-color="#FFD950"/>
<stop offset="1" stop-color="#E78932"/>
</linearGradient>
<linearGradient id="paint2_linear_1105_987" x1="14.0869" y1="6" x2="14.0869" y2="16" gradientUnits="userSpaceOnUse">
<stop stop-color="#FFD950"/>
<stop offset="1" stop-color="#E78932"/>
</linearGradient>
</defs>
</svg>
