<svg width="22" height="22" viewBox="0 0 22 22" fill="none" xmlns="http://www.w3.org/2000/svg">
<path d="M13.7549 14.5498H18.3389C18.9054 14.55 19.3015 14.9708 19.3115 15.417L19.3076 15.5059V15.5068C19.2822 15.777 19.247 16.0414 19.1992 16.2998L19.1475 16.5566C19.0037 17.2033 18.7797 17.7181 18.4424 18.1201L18.29 18.2852C17.9198 18.6553 17.4403 18.9087 16.8311 19.0762L16.5615 19.1426C15.824 19.3065 14.9076 19.3662 13.7773 19.3662H13.7549C13.1843 19.366 12.7217 18.9036 12.7217 18.333V15.583L12.7275 15.4775C12.777 14.9913 13.1632 14.6051 13.6494 14.5557L13.7549 14.5498Z" stroke="#979797" stroke-width="1.6"/>
<path d="M3.66895 10.8838H8.25293C8.82339 10.884 9.28596 11.3465 9.28613 11.917V18.334C9.28613 18.9046 8.8235 19.367 8.25293 19.3672H8.23047C7.24159 19.3672 6.41637 19.3215 5.73145 19.2002L5.44629 19.1426C4.79958 18.9988 4.28486 18.7749 3.88281 18.4375L3.71777 18.2861C3.34748 17.9159 3.09421 17.4356 2.92676 16.8262L2.86035 16.5566C2.69647 15.8191 2.63574 14.9026 2.63574 13.7725V11.917C2.63592 11.3465 3.0985 10.884 3.66895 10.8838Z" stroke="#979797" stroke-width="1.6"/>
<path d="M13.7549 2.63379H13.7773C14.7662 2.63379 15.5914 2.68039 16.2764 2.80176L16.5615 2.8584C17.3007 3.02266 17.8669 3.29264 18.29 3.71582C18.6603 4.08607 18.9136 4.56558 19.0811 5.1748L19.1475 5.44434C19.3114 6.18191 19.3721 7.09824 19.3721 8.22852V10.084C19.3721 10.6546 18.9094 11.117 18.3389 11.1172H13.7549C13.1843 11.117 12.7217 10.6546 12.7217 10.084V3.66699C12.7219 3.09655 13.1844 2.63396 13.7549 2.63379Z" stroke="#979797" stroke-width="1.6"/>
<path d="M8.22949 2.63379H8.25098C8.82158 2.63379 9.284 3.09644 9.28418 3.66699V6.41699C9.28418 6.98769 8.82169 7.4502 8.25098 7.4502H3.66797C3.1014 7.4502 2.70558 7.03015 2.69531 6.58398L2.69824 6.49414C2.72371 6.22398 2.75891 5.95959 2.80664 5.70117L2.8584 5.44434C3.00214 4.79754 3.22701 4.28292 3.56445 3.88086L3.71582 3.71582C4.08618 3.34546 4.5663 3.09225 5.17578 2.9248L5.44434 2.8584C6.18197 2.69446 7.09917 2.63379 8.22949 2.63379Z" stroke="#979797" stroke-width="1.6"/>
</svg>
