<svg width="22" height="22" viewBox="0 0 22 22" fill="none" xmlns="http://www.w3.org/2000/svg">
<path d="M13.7474 13.75C12.7348 13.75 11.9141 14.5708 11.9141 15.5833V18.3333C11.9141 19.3459 12.7348 20.1667 13.7474 20.1667H13.7694C14.9181 20.1667 15.9038 20.1064 16.7273 19.9233C17.5614 19.7379 18.2843 19.4148 18.8483 18.8509C19.4122 18.287 19.7353 17.564 19.9207 16.7299C20.0047 16.3517 20.0602 15.9678 20.0966 15.5814C20.1917 14.5734 19.3433 13.75 18.3307 13.75H13.7474Z" fill="url(#paint0_linear_986_41176)"/>
<path d="M1.83203 13.7727V11.9173C1.83203 10.9048 2.65284 10.084 3.66536 10.084H8.2487C9.26125 10.084 10.082 10.9048 10.082 11.9173V18.334C10.082 19.3465 9.26125 20.1673 8.2487 20.1673H8.2267C7.078 20.1673 6.09235 20.107 5.26875 19.9239C4.43475 19.7386 3.71179 19.4155 3.14784 18.8515C2.58389 18.2876 2.26077 17.5646 2.07542 16.7306C1.89238 15.907 1.83203 14.9213 1.83203 13.7727Z" fill="url(#paint1_linear_986_41176)"/>
<path d="M20.1641 10.084C20.1641 11.0965 19.3433 11.9173 18.3307 11.9173H13.7474C12.7348 11.9173 11.9141 11.0965 11.9141 10.084V3.66732C11.9141 2.6548 12.7348 1.83398 13.7474 1.83398H13.7694C14.9181 1.83398 15.9038 1.89434 16.7273 2.07738C17.5614 2.26273 18.2843 2.58584 18.8483 3.1498C19.4122 3.71375 19.7353 4.4367 19.9207 5.27071C20.1037 6.0943 20.1641 7.07995 20.1641 8.22865V10.084Z" fill="url(#paint2_linear_986_41176)"/>
<path d="M10.0805 3.66732C10.0805 2.6548 9.25969 1.83398 8.24714 1.83398H8.22514C7.07644 1.83398 6.09079 1.89434 5.2672 2.07738C4.43319 2.26273 3.71024 2.58584 3.14629 3.1498C2.58233 3.71375 2.25922 4.4367 2.07387 5.27071C1.9898 5.64897 1.93432 6.0329 1.8979 6.41924C1.80289 7.4273 2.65129 8.25065 3.66381 8.25065H8.24714C9.25969 8.25065 10.0805 7.42984 10.0805 6.41732V3.66732Z" fill="url(#paint3_linear_986_41176)"/>
<defs>
<linearGradient id="paint0_linear_986_41176" x1="16.009" y1="13.75" x2="16.009" y2="20.1667" gradientUnits="userSpaceOnUse">
<stop stop-color="#FFD950"/>
<stop offset="1" stop-color="#E78932"/>
</linearGradient>
<linearGradient id="paint1_linear_986_41176" x1="5.95703" y1="10.084" x2="5.95703" y2="20.1673" gradientUnits="userSpaceOnUse">
<stop stop-color="#FFD950"/>
<stop offset="1" stop-color="#E78932"/>
</linearGradient>
<linearGradient id="paint2_linear_986_41176" x1="16.0391" y1="1.83398" x2="16.0391" y2="11.9173" gradientUnits="userSpaceOnUse">
<stop stop-color="#FFD950"/>
<stop offset="1" stop-color="#E78932"/>
</linearGradient>
<linearGradient id="paint3_linear_986_41176" x1="5.98555" y1="1.83398" x2="5.98555" y2="8.25065" gradientUnits="userSpaceOnUse">
<stop stop-color="#FFD950"/>
<stop offset="1" stop-color="#E78932"/>
</linearGradient>
</defs>
</svg>
