<svg width="10" height="20" viewBox="0 0 10 20" fill="none" xmlns="http://www.w3.org/2000/svg">
<path d="M8.75471 20C8.59013 20.0011 8.42699 19.9649 8.27462 19.8935C8.12226 19.8221 7.98368 19.7169 7.86683 19.5839L0.363645 10.9759C0.130732 10.7071 0 10.3435 0 9.96445C0 9.58543 0.130732 9.22181 0.363645 8.95301L7.86683 0.344977C8.10606 0.10994 8.41379 -0.0128767 8.72852 0.00106995C9.04325 0.0150166 9.3418 0.164699 9.56451 0.420206C9.78722 0.675713 9.91769 1.01823 9.92985 1.3793C9.94201 1.74037 9.83495 2.09341 9.63008 2.36786L3.01477 9.95728L9.63008 17.5467C9.80569 17.7465 9.9257 18.0016 9.97495 18.2796C10.0242 18.5577 10.0005 18.8462 9.90679 19.1088C9.81309 19.3714 9.65363 19.5962 9.44856 19.7549C9.24349 19.9135 9.00203 19.9988 8.75471 20Z" fill="white"/>
</svg>
