<svg width="50" height="50" viewBox="0 0 50 50" fill="none" xmlns="http://www.w3.org/2000/svg">
<path d="M47.5 25C48.8807 25 50.0129 23.878 49.8751 22.5041C49.6316 20.0773 49.0338 17.6946 48.097 15.4329C46.8406 12.3998 44.9991 9.6438 42.6777 7.32233C40.3562 5.00087 37.6002 3.15938 34.5671 1.90301C31.5339 0.646644 28.283 -1.43507e-07 25 0C21.717 1.43507e-07 18.4661 0.646644 15.4329 1.90301C12.3998 3.15938 9.64379 5.00087 7.32233 7.32233C5.00086 9.6438 3.15938 12.3998 1.90301 15.4329C0.966203 17.6946 0.368396 20.0773 0.124896 22.5041C-0.0129467 23.878 1.11929 25 2.5 25C3.88071 25 4.98391 23.8764 5.15605 22.5065C5.37842 20.7368 5.837 19.0011 6.52241 17.3463C7.5275 14.9198 9.00069 12.715 10.8579 10.8579C12.715 9.00069 14.9198 7.5275 17.3463 6.52241C19.7728 5.51732 22.3736 5 25 5C27.6264 5 30.2272 5.51731 32.6537 6.52241C35.0802 7.5275 37.285 9.00069 39.1421 10.8579C40.9993 12.715 42.4725 14.9198 43.4776 17.3463C44.163 19.0011 44.6216 20.7368 44.844 22.5065C45.0161 23.8764 46.1193 25 47.5 25Z" fill="url(#paint0_linear_1185_221)"/>
<path opacity="0.6" d="M34.5 24.5C35.8807 24.5 37.0251 23.3698 36.7508 22.0166C36.5916 21.231 36.3567 20.4606 36.0485 19.7165C35.4203 18.1999 34.4996 16.8219 33.3388 15.6612C32.1781 14.5004 30.8001 13.5797 29.2835 12.9515C27.767 12.3233 26.1415 12 24.5 12C22.8585 12 21.233 12.3233 19.7165 12.9515C18.1999 13.5797 16.8219 14.5004 15.6612 15.6612C14.5004 16.8219 13.5797 18.1999 12.9515 19.7165C12.6433 20.4606 12.4084 21.231 12.2492 22.0166C11.9749 23.3698 13.1193 24.5 14.5 24.5C15.8807 24.5 16.9611 23.3507 17.4128 22.046C17.4613 21.906 17.514 21.7672 17.5709 21.6299C17.9478 20.7199 18.5003 19.8931 19.1967 19.1967C19.8931 18.5003 20.7199 17.9478 21.6299 17.5709C22.5398 17.194 23.5151 17 24.5 17C25.4849 17 26.4602 17.194 27.3701 17.5709C28.2801 17.9478 29.1069 18.5003 29.8033 19.1967C30.4997 19.8931 31.0522 20.7199 31.4291 21.6299C31.486 21.7672 31.5387 21.906 31.5872 22.046C32.0389 23.3507 33.1193 24.5 34.5 24.5Z" fill="#FFD950"/>
<defs>
<linearGradient id="paint0_linear_1185_221" x1="25" y1="0" x2="25" y2="50" gradientUnits="userSpaceOnUse">
<stop stop-color="#FFD950"/>
<stop offset="1" stop-color="#E78932"/>
</linearGradient>
</defs>
</svg>
