<svg width="40" height="40" viewBox="0 0 40 40" fill="none" xmlns="http://www.w3.org/2000/svg">
<rect opacity="0.1" width="40" height="40" rx="16" fill="url(#paint0_linear_1_327)"/>
<g clip-path="url(#clip0_1_327)">
<path d="M24.0435 21.0207C23.8476 21.0046 23.6534 21.0668 23.5033 21.1937C23.3533 21.3206 23.2597 21.5019 23.2431 21.6977C23.1775 22.4719 23.0962 23.1453 23.0251 23.4993V23.5035C22.8153 24.5856 21.7903 25.6551 20.7392 25.8903C20.6482 25.909 20.5568 25.927 20.4657 25.9442C20.5439 24.9391 20.6021 23.6539 20.5943 22.6629C20.606 21.1489 20.461 18.8176 20.3325 17.8899C20.1017 16.1817 19.0513 14.2871 17.8892 13.4821L17.8821 13.4774C17.0741 12.9315 16.2082 12.4768 15.3001 12.1215C15.1381 12.0588 14.9781 12.0002 14.82 11.9457C15.6821 11.8125 16.5532 11.7472 17.4255 11.7504C18.613 11.7504 19.697 11.8586 20.7392 12.075C21.7903 12.3094 22.8153 13.3797 23.0251 14.4618V14.466C23.0958 14.8176 23.1771 15.491 23.2427 16.2629C23.2594 16.4591 23.3533 16.6406 23.5038 16.7675C23.6543 16.8944 23.8491 16.9564 24.0452 16.9397C24.2414 16.923 24.4229 16.8291 24.5498 16.6786C24.6767 16.5281 24.7387 16.3333 24.722 16.1371C24.6509 15.3016 24.5634 14.5871 24.4814 14.1762C24.1575 12.5118 22.6845 10.9848 21.0548 10.6239L21.0454 10.6219C19.9001 10.3844 18.7165 10.268 17.4228 10.2657C16.129 10.2633 14.9501 10.3828 13.8048 10.6223L13.795 10.6243C13.0677 10.7856 12.372 11.1793 11.7954 11.7133C11.6396 11.8308 11.5034 11.9723 11.3919 12.1325C10.8825 12.727 10.5126 13.4383 10.3689 14.1762C10.1888 15.0789 9.98527 17.42 10.0009 18.9825C9.9923 19.8207 10.0466 20.8832 10.1271 21.8274C10.17 22.4328 10.2189 22.9602 10.2657 23.2985C10.4966 25.0067 11.547 26.9012 12.7095 27.7063L12.7161 27.711C13.5243 28.2567 14.3904 28.7115 15.2985 29.0668C16.2181 29.4239 17.0618 29.6403 17.8786 29.7285H17.8857C18.9833 29.8266 19.981 28.8739 20.2829 27.4809C20.5384 27.4403 20.7916 27.394 21.0427 27.3422L21.0521 27.3403C22.6821 26.9793 24.1548 25.4524 24.4786 23.7879C24.5607 23.3762 24.6485 22.6602 24.7196 21.8227C24.7362 21.6267 24.6743 21.4322 24.5475 21.2818C24.4207 21.1314 24.2394 21.0375 24.0435 21.0207Z" fill="url(#paint1_linear_1_327)"/>
<path d="M30.0039 18.9808C30.0039 18.9562 30.0039 18.9316 30 18.907C30.0002 18.9054 30.0002 18.9038 30 18.9023C29.9977 18.8792 29.9941 18.8563 29.9895 18.8335V18.8285C29.9602 18.6874 29.8902 18.558 29.7883 18.4562L27.132 15.7976C26.9928 15.6584 26.804 15.5801 26.6072 15.5801C26.4103 15.58 26.2215 15.6582 26.0822 15.7974C25.943 15.9366 25.8647 16.1254 25.8647 16.3223C25.8647 16.5191 25.9428 16.708 26.082 16.8472L27.4754 18.2402H22.3516C22.1547 18.2402 21.9659 18.3184 21.8268 18.4576C21.6876 18.5967 21.6094 18.7855 21.6094 18.9824C21.6094 19.1792 21.6876 19.368 21.8268 19.5072C21.9659 19.6464 22.1547 19.7246 22.3516 19.7246H27.4688L26.0766 21.1167C25.9379 21.256 25.8601 21.4447 25.8603 21.6412C25.8605 21.8378 25.9387 22.0263 26.0776 22.1653C26.2166 22.3043 26.4051 22.3824 26.6017 22.3826C26.7983 22.3828 26.9869 22.3051 27.1262 22.1663L29.7703 19.5222C29.8662 19.4324 29.9363 19.3186 29.9734 19.1925C29.9801 19.17 29.9856 19.1472 29.9898 19.1242C29.99 19.1209 29.99 19.1176 29.9898 19.1144C29.9934 19.0945 29.9969 19.0753 29.9988 19.0542C30.0008 19.0331 29.9988 19.0238 29.9988 19.0089C29.9988 19.0003 29.9988 18.9917 29.9988 18.9831L30.0039 18.9808Z" fill="url(#paint2_linear_1_327)"/>
</g>
<defs>
<linearGradient id="paint0_linear_1_327" x1="20" y1="0" x2="20" y2="40" gradientUnits="userSpaceOnUse">
<stop stop-color="#FFD950"/>
<stop offset="1" stop-color="#E78932"/>
</linearGradient>
<linearGradient id="paint1_linear_1_327" x1="17.3623" y1="10.2656" x2="17.3623" y2="29.7355" gradientUnits="userSpaceOnUse">
<stop stop-color="#FFD950"/>
<stop offset="1" stop-color="#E78932"/>
</linearGradient>
<linearGradient id="paint2_linear_1_327" x1="25.8066" y1="15.5801" x2="25.8066" y2="22.3826" gradientUnits="userSpaceOnUse">
<stop stop-color="#FFD950"/>
<stop offset="1" stop-color="#E78932"/>
</linearGradient>
<clipPath id="clip0_1_327">
<rect width="20" height="20" fill="white" transform="translate(10 10)"/>
</clipPath>
</defs>
</svg>
