<svg width="22" height="22" viewBox="0 0 22 22" fill="none" xmlns="http://www.w3.org/2000/svg">
<path fill-rule="evenodd" clip-rule="evenodd" d="M15.9023 1.2525C15.1099 1.18554 14.1241 1.18555 12.8667 1.18555H9.13851C7.8811 1.18555 6.89529 1.18554 6.10297 1.2525C5.29616 1.3207 4.62965 1.46186 4.02636 1.77984C3.03459 2.3026 2.22825 3.13674 1.72292 4.16271C1.41554 4.78681 1.27908 5.47631 1.21316 6.31092C1.14843 7.13056 1.14844 8.15037 1.14844 9.45114V13.4926C1.14844 15.8607 3.00415 17.7804 5.29329 17.7804H5.8449C6.07269 17.7804 6.22845 18.0184 6.14385 18.2372C5.51441 19.8651 7.32668 21.3367 8.70581 20.3177L11.0989 18.5493L11.144 18.5161C11.7939 18.0425 12.5682 17.7857 13.3631 17.7805L13.4184 17.7804H14.0561C15.4757 17.7806 16.3416 17.7808 17.069 17.5601C18.7916 17.0376 20.1387 15.644 20.6438 13.862C20.8571 13.1095 20.857 12.2138 20.8568 10.7453V9.45112C20.8568 8.15038 20.8568 7.13054 20.7921 6.31092C20.7261 5.4763 20.5897 4.78681 20.2823 4.16271C19.7769 3.13674 18.9706 2.3026 17.9788 1.77984C17.3755 1.46186 16.709 1.3207 15.9023 1.2525ZM4.6506 3.04722C5.02774 2.84843 5.49316 2.7312 6.21493 2.6702C6.94472 2.60851 7.87447 2.60796 9.16927 2.60796H12.8359C14.1307 2.60796 15.0605 2.60851 15.7903 2.6702C16.512 2.7312 16.9774 2.84843 17.3546 3.04722C18.0876 3.43361 18.6836 4.05015 19.0572 4.80847C19.2493 5.19862 19.3626 5.68009 19.4216 6.42674C19.4812 7.1817 19.4818 8.14351 19.4818 9.48296V10.6059C19.4818 12.2577 19.4748 12.9312 19.3244 13.4617C18.951 14.7789 17.9553 15.8089 16.6821 16.1951C16.1692 16.3508 15.5182 16.358 13.9215 16.358H13.4184L13.3543 16.3581C12.2788 16.3652 11.2311 16.7125 10.352 17.3534L7.90661 19.1602C7.64494 19.3536 7.30108 19.0743 7.42051 18.7654C7.86638 17.6123 7.04545 16.358 5.8449 16.358H5.29329C3.76354 16.358 2.52344 15.0751 2.52344 13.4926V9.48296C2.52344 8.14351 2.52397 7.1817 2.5836 6.42674C2.64257 5.68009 2.75589 5.19862 2.94806 4.80847C3.32156 4.05015 3.91755 3.43361 4.6506 3.04722Z" fill="#979797"/>
<path d="M8.25521 9.48343C8.25521 10.0072 7.8448 10.4317 7.33854 10.4317C6.83228 10.4317 6.42188 10.0072 6.42188 9.48343C6.42188 8.95972 6.83228 8.53516 7.33854 8.53516C7.8448 8.53516 8.25521 8.95972 8.25521 9.48343Z" fill="#979797"/>
<path d="M11.9193 9.48343C11.9193 10.0072 11.5089 10.4317 11.0026 10.4317C10.4963 10.4317 10.0859 10.0072 10.0859 9.48343C10.0859 8.95972 10.4963 8.53516 11.0026 8.53516C11.5089 8.53516 11.9193 8.95972 11.9193 9.48343Z" fill="#979797"/>
<path d="M15.5833 9.48343C15.5833 10.0072 15.1729 10.4317 14.6667 10.4317C14.1604 10.4317 13.75 10.0072 13.75 9.48343C13.75 8.95972 14.1604 8.53516 14.6667 8.53516C15.1729 8.53516 15.5833 8.95972 15.5833 9.48343Z" fill="#979797"/>
</svg>
