<svg width="40" height="40" viewBox="0 0 40 40" fill="none" xmlns="http://www.w3.org/2000/svg">
<rect opacity="0.1" width="40" height="40" rx="16" fill="url(#paint0_linear_1_240)"/>
<path d="M25.8359 11.043H14.1693C13.7826 11.0434 13.412 11.1972 13.1386 11.4706C12.8652 11.744 12.7114 12.1147 12.7109 12.5013V26.8307C12.7108 27.0911 12.7804 27.3468 12.9125 27.5712C13.0446 27.7956 13.2344 27.9806 13.4621 28.1068C13.6899 28.233 13.9473 28.296 14.2076 28.2891C14.4679 28.2823 14.7216 28.2058 14.9424 28.0677L19.8911 24.9744C19.9246 24.9542 19.9629 24.9434 20.0021 24.9432C20.0412 24.9431 20.0797 24.9536 20.1133 24.9736L25.0628 28.0677C25.2836 28.2058 25.5373 28.2822 25.7976 28.2891C26.0579 28.296 26.3153 28.233 26.5431 28.1068C26.7708 27.9805 26.9606 27.7956 27.0927 27.5712C27.2248 27.3468 27.2944 27.0911 27.2943 26.8307V12.5013C27.2938 12.1147 27.14 11.744 26.8666 11.4706C26.5932 11.1972 26.2226 11.0434 25.8359 11.043ZM23.5007 17.3174L22.0263 18.4969C21.9658 18.5454 21.9211 18.6109 21.898 18.685C21.8749 18.7591 21.8744 18.8384 21.8967 18.9127L22.5724 21.1652C22.596 21.2437 22.5942 21.3276 22.5673 21.4051C22.5403 21.4825 22.4897 21.5494 22.4225 21.5963C22.3553 21.6432 22.275 21.6677 22.193 21.6663C22.1111 21.6649 22.0317 21.6377 21.9661 21.5885L20.2362 20.2911C20.1688 20.2406 20.0868 20.2132 20.0026 20.2132C19.9184 20.2132 19.8364 20.2406 19.769 20.2911L18.0393 21.5884C17.9737 21.6376 17.8943 21.6648 17.8123 21.6662C17.7304 21.6676 17.6501 21.6431 17.5829 21.5962C17.5157 21.5493 17.465 21.4824 17.438 21.405C17.4111 21.3276 17.4092 21.2437 17.4328 21.1651L18.1084 18.9126C18.1308 18.8383 18.1304 18.759 18.1073 18.6849C18.0842 18.6108 18.0395 18.5453 17.9788 18.4968L16.5045 17.3174C16.4415 17.267 16.3957 17.1983 16.3735 17.1208C16.3513 17.0432 16.3537 16.9607 16.3804 16.8846C16.4071 16.8085 16.4568 16.7425 16.5227 16.6959C16.5885 16.6493 16.6671 16.6242 16.7478 16.6242H18.4367C18.5128 16.6242 18.5873 16.6019 18.6509 16.5599C18.7145 16.518 18.7643 16.4583 18.7943 16.3883L19.6449 14.4039C19.6749 14.3339 19.7248 14.2742 19.7884 14.2323C19.852 14.1903 19.9264 14.168 20.0026 14.168C20.0788 14.168 20.1533 14.1903 20.2168 14.2323C20.2804 14.2742 20.3303 14.3339 20.3603 14.4039L21.2109 16.3883C21.2409 16.4583 21.2908 16.518 21.3544 16.5599C21.418 16.6019 21.4924 16.6242 21.5686 16.6242H23.2574C23.3381 16.6242 23.4168 16.6493 23.4826 16.6959C23.5484 16.7426 23.5981 16.8085 23.6248 16.8846C23.6515 16.9607 23.6539 17.0432 23.6317 17.1208C23.6095 17.1983 23.5637 17.267 23.5007 17.3174Z" fill="url(#paint1_linear_1_240)"/>
<defs>
<linearGradient id="paint0_linear_1_240" x1="20" y1="0" x2="20" y2="40" gradientUnits="userSpaceOnUse">
<stop stop-color="#FFD950"/>
<stop offset="1" stop-color="#E78932"/>
</linearGradient>
<linearGradient id="paint1_linear_1_240" x1="20.0026" y1="11.043" x2="20.0026" y2="28.2896" gradientUnits="userSpaceOnUse">
<stop stop-color="#FFD950"/>
<stop offset="1" stop-color="#E78932"/>
</linearGradient>
</defs>
</svg>
