<svg width="40" height="40" viewBox="0 0 40 40" fill="none" xmlns="http://www.w3.org/2000/svg">
<path d="M0 15C0 6.71573 6.71573 0 15 0H25C33.2843 0 40 6.71573 40 15V25C40 33.2843 33.2843 40 25 40H15C6.71573 40 0 33.2843 0 25V15Z" fill="url(#paint0_linear_986_31996)"/>
<path d="M27.7083 12.5H12.2917C11.0275 12.5 10 13.5275 10 14.7917V25.2083C10 26.4725 11.0275 27.5 12.2917 27.5H27.7083C28.9725 27.5 30 26.4725 30 25.2083V14.7917C30 13.5275 28.9725 12.5 27.7083 12.5ZM16.25 15.8333C17.3983 15.8333 18.3333 16.7683 18.3333 17.9167C18.3333 19.065 17.3983 20 16.25 20C15.1017 20 14.1667 19.065 14.1667 17.9167C14.1667 16.7683 15.1017 15.8333 16.25 15.8333ZM20 23.5417C20 23.8867 19.72 24.1667 19.375 24.1667H13.125C12.78 24.1667 12.5 23.8867 12.5 23.5417V23.125C12.5 21.8608 13.5275 20.8333 14.7917 20.8333H17.7083C18.9725 20.8333 20 21.8608 20 23.125V23.5417ZM26.875 24.1667H22.2917C21.9467 24.1667 21.6667 23.8867 21.6667 23.5417C21.6667 23.1967 21.9467 22.9167 22.2917 22.9167H26.875C27.22 22.9167 27.5 23.1967 27.5 23.5417C27.5 23.8867 27.22 24.1667 26.875 24.1667ZM26.875 20.8333H22.2917C21.9467 20.8333 21.6667 20.5533 21.6667 20.2083C21.6667 19.8633 21.9467 19.5833 22.2917 19.5833H26.875C27.22 19.5833 27.5 19.8633 27.5 20.2083C27.5 20.5533 27.22 20.8333 26.875 20.8333ZM26.875 17.5H22.2917C21.9467 17.5 21.6667 17.22 21.6667 16.875C21.6667 16.53 21.9467 16.25 22.2917 16.25H26.875C27.22 16.25 27.5 16.53 27.5 16.875C27.5 17.22 27.22 17.5 26.875 17.5Z" fill="white"/>
<defs>
<linearGradient id="paint0_linear_986_31996" x1="20" y1="0" x2="20" y2="40" gradientUnits="userSpaceOnUse">
<stop stop-color="#FFD950"/>
<stop offset="1" stop-color="#E78932"/>
</linearGradient>
</defs>
</svg>
