<svg width="40" height="40" viewBox="0 0 40 40" fill="none" xmlns="http://www.w3.org/2000/svg">
<rect opacity="0.1" width="40" height="40" rx="16" fill="url(#paint0_linear_1_317)"/>
<path d="M20.3255 23.1492L25.4193 14.3263V13.3333C25.4193 12.1829 24.4864 11.25 23.3359 11.25H14.1693C13.0189 11.25 12.0859 12.1829 12.0859 13.3333V26.6667C12.0859 27.8171 13.0189 28.75 14.1693 28.75H23.3359C24.4864 28.75 25.4193 27.8171 25.4193 26.6667V22.6604L23.9343 25.2329C23.7147 25.6125 23.4059 25.94 23.0409 26.1804L21.9376 26.9096C21.718 27.0546 21.4643 27.1313 21.2039 27.1313C20.8372 27.1313 20.4826 26.9775 20.2297 26.7092C19.9768 26.44 19.8497 26.0875 19.8722 25.7167L19.9509 24.3967C19.9772 23.9587 20.1068 23.5275 20.3255 23.1487V23.1492ZM14.5859 13.75H18.3359C18.5664 13.75 18.7526 13.9367 18.7526 14.1667C18.7526 14.3967 18.5664 14.5833 18.3359 14.5833H14.5859C14.3555 14.5833 14.1693 14.3967 14.1693 14.1667C14.1693 13.9367 14.3555 13.75 14.5859 13.75ZM14.5859 16.25H22.2068C22.4372 16.25 22.6234 16.4367 22.6234 16.6667C22.6234 16.8967 22.4372 17.0833 22.2068 17.0833H14.5859C14.3555 17.0833 14.1693 16.8967 14.1693 16.6667C14.1693 16.4367 14.3555 16.25 14.5859 16.25ZM18.4859 26.25H17.9193C17.7801 26.25 17.6501 26.1804 17.573 26.065L17.0855 25.3358L16.8201 25.7354C16.6826 25.9325 16.4605 26.0363 16.228 26.0087C16.0005 25.9829 15.8059 25.835 15.7201 25.6229L15.4193 24.8717L14.9726 25.9883C14.9076 26.1512 14.7509 26.2504 14.5855 26.2504C14.5339 26.2504 14.4818 26.2408 14.4309 26.2204C14.2172 26.135 14.113 25.8925 14.1984 25.6788L14.6443 24.5621C14.7739 24.2429 15.0772 24.0375 15.4184 24.0375C15.7597 24.0375 16.0634 24.2429 16.1918 24.5604L16.3451 24.9438L16.3922 24.8733C16.5426 24.6412 16.8026 24.5 17.0847 24.5C17.3668 24.5 17.6268 24.6408 17.7801 24.8775L18.1405 25.4167H18.4847C18.7151 25.4167 18.9014 25.6033 18.9014 25.8333C18.9014 26.0633 18.7151 26.25 18.4847 26.25H18.4859ZM19.3193 22.0833H14.5859C14.3555 22.0833 14.1693 21.8967 14.1693 21.6667C14.1693 21.4367 14.3555 21.25 14.5859 21.25H19.3193C19.5497 21.25 19.7359 21.4367 19.7359 21.6667C19.7359 21.8967 19.5497 22.0833 19.3193 22.0833ZM14.5859 19.5833C14.3555 19.5833 14.1693 19.3967 14.1693 19.1667C14.1693 18.9367 14.3555 18.75 14.5859 18.75H20.7609C20.9914 18.75 21.1776 18.9367 21.1776 19.1667C21.1776 19.3967 20.9914 19.5833 20.7609 19.5833H14.5859Z" fill="url(#paint1_linear_1_317)"/>
<path d="M28.1021 16.3412L28.6158 15.4512C28.8921 14.9728 28.7279 14.3612 28.25 14.0853L27.8171 13.8353C27.3388 13.5591 26.7271 13.7232 26.4513 14.2012L25.9375 15.0912L28.1021 16.3412Z" fill="url(#paint2_linear_1_317)"/>
<path d="M25.5232 15.8129L21.0474 23.5654C20.892 23.8342 20.8016 24.1358 20.7832 24.4454L20.7041 25.7658C20.6795 26.1771 21.1349 26.44 21.4787 26.2129L22.5828 25.4842C22.842 25.3129 23.0578 25.0842 23.2128 24.815L27.6887 17.0625L25.5237 15.8125L25.5232 15.8129Z" fill="url(#paint3_linear_1_317)"/>
<defs>
<linearGradient id="paint0_linear_1_317" x1="20" y1="0" x2="20" y2="40" gradientUnits="userSpaceOnUse">
<stop stop-color="#FFD950"/>
<stop offset="1" stop-color="#E78932"/>
</linearGradient>
<linearGradient id="paint1_linear_1_317" x1="18.7526" y1="11.25" x2="18.7526" y2="28.75" gradientUnits="userSpaceOnUse">
<stop stop-color="#FFD950"/>
<stop offset="1" stop-color="#E78932"/>
</linearGradient>
<linearGradient id="paint2_linear_1_317" x1="27.3437" y1="13.7012" x2="27.3437" y2="16.3412" gradientUnits="userSpaceOnUse">
<stop stop-color="#FFD950"/>
<stop offset="1" stop-color="#E78932"/>
</linearGradient>
<linearGradient id="paint3_linear_1_317" x1="24.1959" y1="15.8125" x2="24.1959" y2="26.2967" gradientUnits="userSpaceOnUse">
<stop stop-color="#FFD950"/>
<stop offset="1" stop-color="#E78932"/>
</linearGradient>
</defs>
</svg>
