<svg width="32" height="32" viewBox="0 0 32 32" fill="none" xmlns="http://www.w3.org/2000/svg">
<path d="M29.8241 13.4504L26.3117 25.3755L22.5993 27.4756H13.1867L5.68668 25.3755C5.68668 25.3755 2.92423 15.9441 2.30533 13.863L2.17423 13.4504C2.09927 13.188 2.13663 12.9067 2.28653 12.6631L4.48038 11.7629L9.98038 13.9004L14.1618 6.77539H17.8366L22.018 13.9004L27.518 11.7629L29.8241 13.4504Z" fill="#FFD400"/>
<path d="M29.825 13.4504L26.3125 25.3755L22.6001 27.4756H16V6.77539H17.8374L22.0188 13.9004L27.5188 11.7629L29.825 13.4504Z" fill="#FDBF00"/>
<path d="M5.6875 25.375V28.1875C5.6875 28.7124 6.09985 29.125 6.625 29.125H25.375C25.9001 29.125 26.3125 28.7124 26.3125 28.1875V25.375H5.6875Z" fill="#FDBF00"/>
<path d="M16 2.875C14.4436 2.875 13.1875 4.1311 13.1875 5.6875C13.1875 7.28125 14.5 8.5 16 8.5C17.5564 8.5 18.8125 7.2251 18.8125 5.6875C18.8125 4.1311 17.5564 2.875 16 2.875Z" fill="#FDBF00"/>
<path d="M29.1875 14.125C28.3948 14.125 27.7034 13.8164 27.1936 13.3064C26.6523 12.7361 26.375 12.0532 26.375 11.3125C26.375 9.76172 27.6367 8.5 29.1875 8.5C30.7383 8.5 32 9.76172 32 11.3125C32 12.8633 30.7383 14.125 29.1875 14.125Z" fill="#FF9F00"/>
<path d="M2.8125 14.125C1.26172 14.125 0 12.8633 0 11.3125C0 9.76172 1.26172 8.5 2.8125 8.5C4.36328 8.5 5.625 9.76172 5.625 11.3125C5.625 12.8813 4.36206 14.125 2.8125 14.125Z" fill="#FDBF00"/>
<path d="M16 8.5V2.875C17.5564 2.875 18.8125 4.1311 18.8125 5.6875C18.8125 7.2251 17.5564 8.5 16 8.5Z" fill="#FF9F00"/>
<path d="M26.3125 25.375V28.1875C26.3125 28.7124 25.9001 29.125 25.375 29.125H16V25.375H26.3125Z" fill="#FF9F00"/>
<path d="M20.6497 16.9746C20.5372 16.6184 20.2374 16.3748 19.8812 16.3186L17.7811 16.0186L16.8436 14.1621C16.6749 13.8623 16.3372 13.6934 15.9998 13.6934C15.6624 13.6934 15.3248 13.8623 15.1561 14.1621L14.2186 16.0186L12.1185 16.3186C11.7623 16.3748 11.4625 16.6184 11.3499 16.9746C11.2562 17.3123 11.3499 17.6873 11.6124 17.9309L13.1124 19.3748L12.7562 21.3999C12.6998 21.7373 12.8311 22.0935 13.1312 22.3186C13.4124 22.5249 13.8062 22.5435 14.106 22.3936L15.9998 21.4185L17.8936 22.3936C18.2122 22.5623 18.5872 22.5247 18.8687 22.3186C19.1685 22.0935 19.2999 21.7373 19.2435 21.3997L18.8873 19.3748L20.3873 17.9309C20.6497 17.6873 20.7437 17.3123 20.6497 16.9746Z" fill="#FF9F00"/>
<path d="M17.8938 22.3936L16 21.4185V13.6934C16.3374 13.6934 16.675 13.8623 16.8438 14.1621L17.7813 16.0186L19.8813 16.3186C20.2375 16.3748 20.5374 16.6184 20.6499 16.9746C20.7437 17.3123 20.6499 17.6873 20.3875 17.9309L18.8875 19.3748L19.2437 21.3999C19.3 21.7373 19.1687 22.0935 18.8687 22.3186C18.5874 22.5247 18.2124 22.5623 17.8938 22.3936Z" fill="#FF7816"/>
</svg>
