<svg width="98" height="111" viewBox="0 0 98 111" fill="none" xmlns="http://www.w3.org/2000/svg">
<circle cx="48" cy="40" r="39.5" stroke="#46464F"/>
<path d="M56.5709 28.9229C56.0972 28.9229 55.7138 29.2931 55.7138 29.7497V31.2326H54.177C53.7032 31.2326 53.3198 31.6028 53.3198 32.0594C53.3198 32.516 53.7032 32.8863 54.177 32.8863H55.7138V34.3692C55.7138 34.8258 56.0972 35.196 56.5709 35.196C57.0447 35.196 57.4281 34.8258 57.4281 34.3692V32.8863H58.9649C59.4387 32.8863 59.8221 32.516 59.8221 32.0594C59.8221 31.6028 59.4387 31.2326 58.9649 31.2326H57.4281V29.7497C57.4281 29.2931 57.0447 28.9229 56.5709 28.9229Z" fill="#979797"/>
<path d="M56.5714 36.847C55.2085 36.847 54.1029 35.8217 54.0172 34.5236C52.6714 34.4409 51.6086 33.3743 51.6086 32.0596C51.6086 31.4147 51.8571 30.8359 52.2771 30.4059C51.5657 29.885 50.6657 29.5791 49.7143 29.5791H46.2857C44.22 29.5791 42.48 31.0012 42.0857 32.8865H40.2857C37.92 32.8865 36 34.7386 36 37.0207V46.9427C36 49.2248 37.92 51.0769 40.2857 51.0769H55.7143C58.08 51.0769 60 49.2248 60 46.9427V37.0207C60 36.0863 59.6743 35.2181 59.1257 34.5236C59.04 35.8217 57.9343 36.847 56.5714 36.847ZM48 47.7696C44.6914 47.7696 42 45.1733 42 41.9817C42 38.7901 44.6914 36.1938 48 36.1938C51.3086 36.1938 54 38.7901 54 41.9817C54 45.1733 51.3086 47.7696 48 47.7696Z" fill="#979797"/>
<path d="M48.0001 46.116C50.367 46.116 52.2858 44.2651 52.2858 41.9819C52.2858 39.6986 50.367 37.8477 48.0001 37.8477C45.6331 37.8477 43.7144 39.6986 43.7144 41.9819C43.7144 44.2651 45.6331 46.116 48.0001 46.116Z" fill="#979797"/>
<path d="M7.89113 100.112C7.89113 101.04 7.57113 101.813 6.93113 102.432C6.30179 103.04 5.33646 103.344 4.03513 103.344H1.89113V108H0.435125V96.848H4.03513C5.29379 96.848 6.24846 97.152 6.89913 97.76C7.56046 98.368 7.89113 99.152 7.89113 100.112ZM4.03513 102.144C4.84579 102.144 5.44313 101.968 5.82713 101.616C6.21113 101.264 6.40313 100.763 6.40313 100.112C6.40313 98.736 5.61379 98.048 4.03513 98.048H1.89113V102.144H4.03513ZM11.1568 100.656C11.4128 100.155 11.7754 99.7653 12.2448 99.488C12.7248 99.2107 13.3061 99.072 13.9888 99.072V100.576H13.6048C11.9728 100.576 11.1568 101.461 11.1568 103.232V108H9.70075V99.232H11.1568V100.656ZM19.4935 108.144C18.6722 108.144 17.9255 107.957 17.2535 107.584C16.5922 107.211 16.0695 106.683 15.6855 106C15.3122 105.307 15.1255 104.507 15.1255 103.6C15.1255 102.704 15.3175 101.915 15.7015 101.232C16.0962 100.539 16.6295 100.011 17.3015 99.648C17.9735 99.2747 18.7255 99.088 19.5575 99.088C20.3895 99.088 21.1415 99.2747 21.8135 99.648C22.4855 100.011 23.0135 100.533 23.3975 101.216C23.7922 101.899 23.9895 102.693 23.9895 103.6C23.9895 104.507 23.7868 105.307 23.3815 106C22.9868 106.683 22.4482 107.211 21.7655 107.584C21.0828 107.957 20.3255 108.144 19.4935 108.144ZM19.4935 106.864C20.0162 106.864 20.5068 106.741 20.9655 106.496C21.4242 106.251 21.7922 105.883 22.0695 105.392C22.3575 104.901 22.5015 104.304 22.5015 103.6C22.5015 102.896 22.3628 102.299 22.0855 101.808C21.8082 101.317 21.4455 100.955 20.9975 100.72C20.5495 100.475 20.0642 100.352 19.5415 100.352C19.0082 100.352 18.5175 100.475 18.0695 100.72C17.6322 100.955 17.2802 101.317 17.0135 101.808C16.7468 102.299 16.6135 102.896 16.6135 103.6C16.6135 104.315 16.7415 104.917 16.9975 105.408C17.2642 105.899 17.6162 106.267 18.0535 106.512C18.4908 106.747 18.9708 106.864 19.4935 106.864ZM29.4719 100.432H27.6319V108H26.1759V100.432H25.0399V99.232H26.1759V98.608C26.1759 97.6267 26.4265 96.912 26.9279 96.464C27.4399 96.0053 28.2559 95.776 29.3759 95.776V96.992C28.7359 96.992 28.2825 97.12 28.0159 97.376C27.7599 97.6213 27.6319 98.032 27.6319 98.608V99.232H29.4719V100.432ZM31.9215 97.808C31.6442 97.808 31.4095 97.712 31.2175 97.52C31.0255 97.328 30.9295 97.0933 30.9295 96.816C30.9295 96.5387 31.0255 96.304 31.2175 96.112C31.4095 95.92 31.6442 95.824 31.9215 95.824C32.1882 95.824 32.4122 95.92 32.5935 96.112C32.7855 96.304 32.8815 96.5387 32.8815 96.816C32.8815 97.0933 32.7855 97.328 32.5935 97.52C32.4122 97.712 32.1882 97.808 31.9215 97.808ZM32.6255 99.232V108H31.1695V99.232H32.6255ZM36.563 96.16V108H35.107V96.16H36.563ZM47.0445 103.28C47.0445 103.557 47.0285 103.851 46.9965 104.16H39.9885C40.0418 105.024 40.3352 105.701 40.8685 106.192C41.4125 106.672 42.0685 106.912 42.8365 106.912C43.4658 106.912 43.9885 106.768 44.4045 106.48C44.8312 106.181 45.1298 105.787 45.3005 105.296H46.8685C46.6338 106.139 46.1645 106.827 45.4605 107.36C44.7565 107.883 43.8818 108.144 42.8365 108.144C42.0045 108.144 41.2578 107.957 40.5965 107.584C39.9458 107.211 39.4338 106.683 39.0605 106C38.6872 105.307 38.5005 104.507 38.5005 103.6C38.5005 102.693 38.6818 101.899 39.0445 101.216C39.4072 100.533 39.9138 100.011 40.5645 99.648C41.2258 99.2747 41.9832 99.088 42.8365 99.088C43.6685 99.088 44.4045 99.2693 45.0445 99.632C45.6845 99.9947 46.1752 100.496 46.5165 101.136C46.8685 101.765 47.0445 102.48 47.0445 103.28ZM45.5405 102.976C45.5405 102.421 45.4178 101.947 45.1725 101.552C44.9272 101.147 44.5912 100.843 44.1645 100.64C43.7485 100.427 43.2845 100.32 42.7725 100.32C42.0365 100.32 41.4072 100.555 40.8845 101.024C40.3725 101.493 40.0792 102.144 40.0045 102.976H45.5405ZM60.688 100.112C60.688 101.04 60.368 101.813 59.728 102.432C59.0987 103.04 58.1333 103.344 56.832 103.344H54.688V108H53.232V96.848H56.832C58.0907 96.848 59.0453 97.152 59.696 97.76C60.3573 98.368 60.688 99.152 60.688 100.112ZM56.832 102.144C57.6427 102.144 58.24 101.968 58.624 101.616C59.008 101.264 59.2 100.763 59.2 100.112C59.2 98.736 58.4107 98.048 56.832 98.048H54.688V102.144H56.832ZM66.8496 99.072C67.511 99.072 68.1083 99.216 68.6416 99.504C69.175 99.7813 69.591 100.203 69.8896 100.768C70.199 101.333 70.3536 102.021 70.3536 102.832V108H68.9136V103.04C68.9136 102.165 68.695 101.499 68.2576 101.04C67.8203 100.571 67.223 100.336 66.4656 100.336C65.6976 100.336 65.0843 100.576 64.6256 101.056C64.1776 101.536 63.9536 102.235 63.9536 103.152V108H62.4976V96.16H63.9536V100.48C64.2416 100.032 64.6363 99.6853 65.1376 99.44C65.6496 99.1947 66.2203 99.072 66.8496 99.072ZM76.556 108.144C75.7347 108.144 74.988 107.957 74.316 107.584C73.6547 107.211 73.132 106.683 72.748 106C72.3747 105.307 72.188 104.507 72.188 103.6C72.188 102.704 72.38 101.915 72.764 101.232C73.1587 100.539 73.692 100.011 74.364 99.648C75.036 99.2747 75.788 99.088 76.62 99.088C77.452 99.088 78.204 99.2747 78.876 99.648C79.548 100.011 80.076 100.533 80.46 101.216C80.8547 101.899 81.052 102.693 81.052 103.6C81.052 104.507 80.8493 105.307 80.444 106C80.0493 106.683 79.5107 107.211 78.828 107.584C78.1453 107.957 77.388 108.144 76.556 108.144ZM76.556 106.864C77.0787 106.864 77.5693 106.741 78.028 106.496C78.4867 106.251 78.8547 105.883 79.132 105.392C79.42 104.901 79.564 104.304 79.564 103.6C79.564 102.896 79.4253 102.299 79.148 101.808C78.8707 101.317 78.508 100.955 78.06 100.72C77.612 100.475 77.1267 100.352 76.604 100.352C76.0707 100.352 75.58 100.475 75.132 100.72C74.6947 100.955 74.3427 101.317 74.076 101.808C73.8093 102.299 73.676 102.896 73.676 103.6C73.676 104.315 73.804 104.917 74.06 105.408C74.3267 105.899 74.6787 106.267 75.116 106.512C75.5533 106.747 76.0333 106.864 76.556 106.864ZM84.7424 100.432V105.6C84.7424 106.027 84.833 106.331 85.0144 106.512C85.1957 106.683 85.5104 106.768 85.9584 106.768H87.0304V108H85.7184C84.9077 108 84.2997 107.813 83.8944 107.44C83.489 107.067 83.2864 106.453 83.2864 105.6V100.432H82.1504V99.232H83.2864V97.024H84.7424V99.232H87.0304V100.432H84.7424ZM92.6185 108.144C91.7972 108.144 91.0505 107.957 90.3785 107.584C89.7172 107.211 89.1945 106.683 88.8105 106C88.4372 105.307 88.2505 104.507 88.2505 103.6C88.2505 102.704 88.4425 101.915 88.8265 101.232C89.2212 100.539 89.7545 100.011 90.4265 99.648C91.0985 99.2747 91.8505 99.088 92.6825 99.088C93.5145 99.088 94.2665 99.2747 94.9385 99.648C95.6105 100.011 96.1385 100.533 96.5225 101.216C96.9172 101.899 97.1145 102.693 97.1145 103.6C97.1145 104.507 96.9118 105.307 96.5065 106C96.1118 106.683 95.5732 107.211 94.8905 107.584C94.2078 107.957 93.4505 108.144 92.6185 108.144ZM92.6185 106.864C93.1412 106.864 93.6318 106.741 94.0905 106.496C94.5492 106.251 94.9172 105.883 95.1945 105.392C95.4825 104.901 95.6265 104.304 95.6265 103.6C95.6265 102.896 95.4878 102.299 95.2105 101.808C94.9332 101.317 94.5705 100.955 94.1225 100.72C93.6745 100.475 93.1892 100.352 92.6665 100.352C92.1332 100.352 91.6425 100.475 91.1945 100.72C90.7572 100.955 90.4052 101.317 90.1385 101.808C89.8718 102.299 89.7385 102.896 89.7385 103.6C89.7385 104.315 89.8665 104.917 90.1225 105.408C90.3892 105.899 90.7412 106.267 91.1785 106.512C91.6158 106.747 92.0958 106.864 92.6185 106.864Z" fill="#979797"/>
</svg>
