<svg width="21" height="21" viewBox="0 0 21 21" fill="none" xmlns="http://www.w3.org/2000/svg">
<g clip-path="url(#clip0_986_39432)">
<path d="M19.3386 9.2414L2.40878 0.98294C2.26318 0.911916 2.1033 0.875 1.94129 0.875C1.3524 0.875 0.875 1.3524 0.875 1.94129V1.97207C0.875 2.11515 0.892544 2.25769 0.927246 2.3965L2.55122 8.89236C2.59557 9.06981 2.74559 9.20089 2.92735 9.2211L10.0652 10.0142C10.3128 10.0417 10.5 10.2509 10.5 10.5C10.5 10.7491 10.3128 10.9583 10.0652 10.9858L2.92735 11.7789C2.74559 11.7991 2.59557 11.9302 2.55122 12.1076L0.927246 18.6035C0.892544 18.7423 0.875 18.8849 0.875 19.0279V19.0587C0.875 19.6476 1.3524 20.125 1.94129 20.125C2.1033 20.125 2.26318 20.0881 2.40878 20.017L19.3386 11.7586C19.8197 11.5239 20.125 11.0354 20.125 10.5C20.125 9.96459 19.8197 9.47608 19.3386 9.2414Z" fill="#0A0A0A"/>
</g>
<defs>
<clipPath id="clip0_986_39432">
<rect width="21" height="21" fill="white"/>
</clipPath>
</defs>
</svg>
