<svg width="22" height="22" viewBox="0 0 22 22" fill="none" xmlns="http://www.w3.org/2000/svg">
<path d="M9.10222 20.3078C9.03285 20.3078 8.96257 20.2933 8.89547 20.2631C8.6606 20.1574 8.53357 19.8898 8.59524 19.6308L10.3625 12.2073H5.60075C5.42839 12.2073 5.2671 12.1186 5.16965 11.9703C5.0722 11.8219 5.05116 11.6329 5.11331 11.4652L8.60659 2.04102C8.68447 1.83091 8.87811 1.69238 9.09403 1.69238H13.9008C14.0774 1.69238 14.2421 1.78546 14.3386 1.93984C14.4351 2.09421 14.4503 2.28898 14.3791 2.45765L12.3106 7.35726H16.4017C16.5928 7.35726 16.7687 7.46615 16.8603 7.64118C16.9519 7.8162 16.9447 8.02948 16.8414 8.19731L9.54219 20.057C9.44349 20.2175 9.27566 20.3078 9.10222 20.3078Z" fill="url(#paint0_linear_986_41760)"/>
<defs>
<linearGradient id="paint0_linear_986_41760" x1="11.0012" y1="1.69238" x2="11.0012" y2="20.3078" gradientUnits="userSpaceOnUse">
<stop stop-color="#FFD950"/>
<stop offset="1" stop-color="#E78932"/>
</linearGradient>
</defs>
</svg>
