<svg width="40" height="40" viewBox="0 0 40 40" fill="none" xmlns="http://www.w3.org/2000/svg">
<rect opacity="0.1" width="40" height="40" rx="16" fill="url(#paint0_linear_1_230)"/>
<path d="M26.1719 11.0959H25.3909C25.7269 11.7127 25.918 12.4195 25.918 13.1703C25.918 14.1414 25.1294 14.9315 24.1602 14.9315H15.8398C14.8706 14.9315 14.082 14.1414 14.082 13.1703C14.082 12.4195 14.2731 11.7127 14.6091 11.0959H13.8281C12.8589 11.0959 12.0703 11.886 12.0703 12.8572V28.2388C12.0703 29.2099 12.8589 30 13.8281 30H26.1719C27.1411 30 27.9297 29.2099 27.9297 28.2388V12.8572C27.9297 11.886 27.1411 11.0959 26.1719 11.0959ZM17.9403 26.6448L16.6643 27.9233C16.4355 28.1525 16.0645 28.1526 15.8357 27.9233L15.2107 27.2971C14.9818 27.0678 14.9818 26.6961 15.2107 26.4668C15.4395 26.2375 15.8105 26.2375 16.0393 26.4668L16.25 26.6779L17.1117 25.8146C17.3405 25.5853 17.7115 25.5853 17.9404 25.8146C18.1691 26.0438 18.1691 26.4155 17.9403 26.6448ZM17.9403 23.2788L16.6643 24.5573C16.4355 24.7866 16.0645 24.7866 15.8357 24.5573L15.2107 23.9311C14.9818 23.7018 14.9818 23.3301 15.2107 23.1009C15.4395 22.8716 15.8105 22.8716 16.0393 23.1009L16.25 23.312L17.1117 22.4486C17.3405 22.2193 17.7115 22.2193 17.9404 22.4486C18.1691 22.6778 18.1691 23.0495 17.9403 23.2788ZM16.8205 20.9044C16.5918 21.1337 16.2207 21.1337 15.9919 20.9044C15.7631 20.6751 15.7631 20.3034 15.9919 20.0741L18.1013 17.9606C18.3301 17.7313 18.7011 17.7313 18.9299 17.9606L20.7031 19.7372L22.1011 18.3366H22.0312C21.7077 18.3366 21.4453 18.0737 21.4453 17.7495C21.4453 17.4253 21.7077 17.1624 22.0312 17.1624C23.6448 17.1624 23.7823 17.0932 24.0029 17.4236C24.1374 17.6251 24.1016 17.6932 24.1016 19.2368C24.1016 19.561 23.8392 19.8239 23.5156 19.8239C23.192 19.8239 22.9297 19.561 22.9297 19.2368V19.1668L21.1174 20.9826C20.8886 21.2119 20.5176 21.2119 20.2888 20.9826L18.5156 19.206L16.8205 20.9044ZM24.3359 27.456H19.6094C19.2858 27.456 19.0234 27.1931 19.0234 26.8689C19.0234 26.5447 19.2858 26.2818 19.6094 26.2818H24.3359C24.6595 26.2818 24.9219 26.5447 24.9219 26.8689C24.9219 27.1931 24.6595 27.456 24.3359 27.456ZM24.3359 24.09H19.6094C19.2858 24.09 19.0234 23.8272 19.0234 23.5029C19.0234 23.1787 19.2858 22.9159 19.6094 22.9159H24.3359C24.6595 22.9159 24.9219 23.1787 24.9219 23.5029C24.9219 23.8272 24.6595 24.09 24.3359 24.09Z" fill="url(#paint1_linear_1_230)"/>
<path d="M21.582 10H18.418C16.6733 10 15.2539 11.4222 15.2539 13.1703C15.2539 13.4945 15.5162 13.7573 15.8398 13.7573H24.1602C24.4838 13.7573 24.7461 13.4945 24.7461 13.1703C24.7461 11.4222 23.3267 10 21.582 10Z" fill="url(#paint2_linear_1_230)"/>
<defs>
<linearGradient id="paint0_linear_1_230" x1="20" y1="0" x2="20" y2="40" gradientUnits="userSpaceOnUse">
<stop stop-color="#FFD950"/>
<stop offset="1" stop-color="#E78932"/>
</linearGradient>
<linearGradient id="paint1_linear_1_230" x1="20" y1="11.0959" x2="20" y2="30" gradientUnits="userSpaceOnUse">
<stop stop-color="#FFD950"/>
<stop offset="1" stop-color="#E78932"/>
</linearGradient>
<linearGradient id="paint2_linear_1_230" x1="20" y1="10" x2="20" y2="13.7573" gradientUnits="userSpaceOnUse">
<stop stop-color="#FFD950"/>
<stop offset="1" stop-color="#E78932"/>
</linearGradient>
</defs>
</svg>
