<svg width="14" height="8" viewBox="0 0 14 8" fill="none" xmlns="http://www.w3.org/2000/svg">
<path d="M7.00019 -0.000184059C6.86858 -0.000945091 6.73812 0.0242801 6.61628 0.0740447C6.49444 0.123809 6.38363 0.197134 6.29018 0.289815L0.290185 6.28981C0.101882 6.47812 -0.00390625 6.73351 -0.00390625 6.99981C-0.00390625 7.26612 0.101882 7.52151 0.290185 7.70981C0.478489 7.89812 0.733884 8.00391 1.00019 8.00391C1.26649 8.00391 1.52188 7.89812 1.71019 7.70981L7.00019 2.40981L12.2902 7.69981C12.4815 7.86364 12.7276 7.94925 12.9792 7.93953C13.2309 7.9298 13.4697 7.82547 13.6477 7.64738C13.8258 7.46928 13.9302 7.23054 13.9399 6.97887C13.9496 6.72719 13.864 6.48112 13.7002 6.28981L7.70018 0.289815C7.51392 0.105071 7.26253 0.000920296 7.00019 -0.000184059Z" fill="#979797"/>
</svg>
