<svg width="22" height="22" viewBox="0 0 22 22" fill="none" xmlns="http://www.w3.org/2000/svg">
<path d="M15.5859 2.0625H6.41927C5.02594 2.0625 3.89844 3.19 3.89844 4.58333V17.3067C3.89844 18.755 5.08094 19.9375 6.52927 19.9375C7.22594 19.9375 7.90427 19.6533 8.3901 19.1675L10.8376 16.72C10.9568 16.6008 11.0484 16.6008 11.1584 16.72L13.6059 19.1675C14.0918 19.6533 14.7701 19.9375 15.4668 19.9375C16.9151 19.9375 18.0976 18.755 18.0976 17.3067V4.58333C18.0976 3.19 16.9701 2.0625 15.5768 2.0625H15.5859ZM16.7318 17.3067C16.7318 18.0033 16.1634 18.5625 15.4759 18.5625C15.1459 18.5625 14.8251 18.425 14.5868 18.1958L12.1393 15.7483C11.8368 15.4458 11.4334 15.2808 11.0026 15.2808C10.5718 15.2808 10.1684 15.4458 9.86594 15.7483L7.41844 18.1958C7.18927 18.425 6.85927 18.5625 6.52927 18.5625C5.8326 18.5625 5.27344 17.9942 5.27344 17.3067V4.58333C5.27344 3.95083 5.78677 3.4375 6.41927 3.4375H15.5859C16.2184 3.4375 16.7318 3.95083 16.7318 4.58333V17.3067Z" fill="#979797"/>
</svg>
